<svg width="44" height="44" viewBox="0 0 44 44" fill="none" xmlns="http://www.w3.org/2000/svg">
<path d="M12.3241 11.0518L21.6653 8.47248C25.0694 7.53255 27.5353 9.0659 28.4834 12.7122L31.0826 22.7084C32.0308 26.3547 30.6392 28.9531 27.2352 29.8931L17.8939 32.4724C14.4898 33.4123 12.0328 31.8765 11.0847 28.2302L8.48549 18.2339C7.53738 14.5877 8.92 11.9917 12.3241 11.0518Z" fill="url(#paint0_linear_52_143)"/>
<g filter="url(#filter0_f_52_143)">
<path d="M14.7353 14.1368L21.0772 12.3857C23.3883 11.7476 25.0442 12.7186 25.6558 15.0704L27.3323 21.5182C27.9439 23.8701 26.981 25.5642 24.6699 26.2023L18.3279 27.9534C16.0169 28.5916 14.367 27.6189 13.7554 25.267L12.0789 18.8193C11.4673 16.4674 12.4242 14.775 14.7353 14.1368Z" fill="#30AD31" fill-opacity="0.5"/>
</g>
<g filter="url(#filter1_b_52_143)">
<mask id="path-3-outside-1_52_143" maskUnits="userSpaceOnUse" x="12.8299" y="12.1235" width="25" height="26" fill="black">
<rect fill="white" x="12.8299" y="12.1235" width="25" height="26"/>
<path d="M30.8136 13.1235H20.0047C16.0542 13.1235 13.8299 15.4156 13.8299 19.4866V30.6369C13.8299 34.684 16.0542 37 20.0047 37H30.8252C34.7641 37 37 34.684 37 30.6369V19.4866C37 15.4156 34.7525 13.1235 30.8136 13.1235"/>
</mask>
<path d="M30.8136 13.1235H20.0047C16.0542 13.1235 13.8299 15.4156 13.8299 19.4866V30.6369C13.8299 34.684 16.0542 37 20.0047 37H30.8252C34.7641 37 37 34.684 37 30.6369V19.4866C37 15.4156 34.7525 13.1235 30.8136 13.1235" fill="#72DC60" fill-opacity="0.35"/>
<path d="M30.8136 13.4165C30.9754 13.4165 31.1066 13.2853 31.1066 13.1235C31.1066 12.9617 30.9754 12.8305 30.8136 12.8305V13.4165ZM30.8136 12.8305C30.6518 12.8305 30.5206 12.9617 30.5206 13.1235C30.5206 13.2853 30.6518 13.4165 30.8136 13.4165V12.8305ZM30.8136 12.8305H20.0047V13.4165H30.8136V12.8305ZM20.0047 12.8305C17.973 12.8305 16.3448 13.4211 15.2256 14.5744C14.1077 15.7263 13.5369 17.3994 13.5369 19.4866H14.1229C14.1229 17.5027 14.6642 15.9943 15.6461 14.9825C16.6268 13.9719 18.0859 13.4165 20.0047 13.4165V12.8305ZM13.5369 19.4866V30.6369H14.1229V19.4866H13.5369ZM13.5369 30.6369C13.5369 32.7125 14.1079 34.3852 15.2253 35.5399C16.3441 36.6959 17.9722 37.293 20.0047 37.293V36.707C18.0868 36.707 16.6274 36.1461 15.6464 35.1323C14.664 34.1172 14.1229 32.6084 14.1229 30.6369H13.5369ZM20.0047 37.293H30.8252V36.707H20.0047V37.293ZM30.8252 37.293C32.8521 37.293 34.48 36.6958 35.6001 35.54C36.7189 34.3855 37.293 32.7129 37.293 30.6369H36.707C36.707 32.608 36.1632 34.1169 35.1793 35.1322C34.1967 36.1462 32.7372 36.707 30.8252 36.707V37.293ZM37.293 30.6369V19.4866H36.707V30.6369H37.293ZM37.293 19.4866C37.293 17.3987 36.716 15.7256 35.5938 14.5739C34.4705 13.4212 32.8397 12.8305 30.8136 12.8305V13.4165C32.7264 13.4165 34.1889 13.9718 35.1741 14.9829C36.1603 15.995 36.707 17.5035 36.707 19.4866H37.293Z" fill="url(#paint1_linear_52_143)" mask="url(#path-3-outside-1_52_143)"/>
</g>
<g filter="url(#filter2_bd_52_143)">
<mask id="path-5-inside-2_52_143" fill="white">
<path d="M29.6548 26.0516H26.3647V29.4302C26.3647 29.9793 25.936 30.421 25.4031 30.421C24.8702 30.421 24.4415 29.9793 24.4415 29.4302V26.0516H21.163C20.6301 26.0397 20.2014 25.598 20.2014 25.0488C20.2014 24.785 20.3057 24.5355 20.4795 24.3445C20.6648 24.1654 20.9081 24.0579 21.163 24.0579H24.4415V20.6913C24.4415 20.1422 24.8702 19.7005 25.4031 19.7005C25.936 19.7005 26.3647 20.1422 26.3647 20.6913V24.0579H29.6548C30.1877 24.0579 30.6164 24.4997 30.6164 25.0488C30.6164 25.598 30.1877 26.0397 29.6548 26.0516"/>
</mask>
<path d="M29.6548 26.0516H26.3647V29.4302C26.3647 29.9793 25.936 30.421 25.4031 30.421C24.8702 30.421 24.4415 29.9793 24.4415 29.4302V26.0516H21.163C20.6301 26.0397 20.2014 25.598 20.2014 25.0488C20.2014 24.785 20.3057 24.5355 20.4795 24.3445C20.6648 24.1654 20.9081 24.0579 21.163 24.0579H24.4415V20.6913C24.4415 20.1422 24.8702 19.7005 25.4031 19.7005C25.936 19.7005 26.3647 20.1422 26.3647 20.6913V24.0579H29.6548C30.1877 24.0579 30.6164 24.4997 30.6164 25.0488C30.6164 25.598 30.1877 26.0397 29.6548 26.0516" fill="url(#paint2_linear_52_143)"/>
<path d="M26.3647 26.0516V25.993H26.3061V26.0516H26.3647ZM24.4415 26.0516H24.5001V25.993H24.4415V26.0516ZM21.163 26.0516L21.1617 26.1102H21.163V26.0516ZM20.4795 24.3445L20.4387 24.3022L20.4361 24.305L20.4795 24.3445ZM24.4415 24.0579V24.1165H24.5001V24.0579H24.4415ZM26.3647 24.0579H26.3061V24.1165H26.3647V24.0579ZM29.6548 25.993H26.3647V26.1102H29.6548V25.993ZM26.3061 26.0516V29.4302H26.4233V26.0516H26.3061ZM26.3061 29.4302C26.3061 29.9486 25.902 30.3624 25.4031 30.3624V30.4796C25.97 30.4796 26.4233 30.01 26.4233 29.4302H26.3061ZM25.4031 30.3624C24.9042 30.3624 24.5001 29.9486 24.5001 29.4302H24.383C24.383 30.01 24.8362 30.4796 25.4031 30.4796V30.3624ZM24.5001 29.4302V26.0516H24.383V29.4302H24.5001ZM24.4415 25.993H21.163V26.1102H24.4415V25.993ZM21.1643 25.993C20.6641 25.9818 20.26 25.567 20.26 25.0488H20.1428C20.1428 25.6289 20.596 26.0975 21.1617 26.1102L21.1643 25.993ZM20.26 25.0488C20.26 24.8006 20.3581 24.5649 20.5228 24.3839L20.4361 24.305C20.2532 24.5061 20.1428 24.7694 20.1428 25.0488H20.26ZM20.5202 24.3866C20.6957 24.217 20.9248 24.1165 21.163 24.1165V23.9993C20.8914 23.9993 20.6339 24.1137 20.4387 24.3023L20.5202 24.3866ZM21.163 24.1165H24.4415V23.9993H21.163V24.1165ZM24.5001 24.0579V20.6913H24.383V24.0579H24.5001ZM24.5001 20.6913C24.5001 20.1729 24.9042 19.7591 25.4031 19.7591V19.6419C24.8362 19.6419 24.383 20.1115 24.383 20.6913H24.5001ZM25.4031 19.7591C25.902 19.7591 26.3061 20.1729 26.3061 20.6913H26.4233C26.4233 20.1115 25.97 19.6419 25.4031 19.6419V19.7591ZM26.3061 20.6913V24.0579H26.4233V20.6913H26.3061ZM26.3647 24.1165H29.6548V23.9993H26.3647V24.1165ZM29.6548 24.1165C30.1537 24.1165 30.5578 24.5303 30.5578 25.0488H30.675C30.675 24.469 30.2218 23.9993 29.6548 23.9993V24.1165ZM30.5578 25.0488C30.5578 25.567 30.1537 25.9818 29.6535 25.993L29.6561 26.1102C30.2218 26.0975 30.675 25.6289 30.675 25.0488H30.5578Z" fill="url(#paint3_linear_52_143)" fill-opacity="0.5" mask="url(#path-5-inside-2_52_143)"/>
</g>
<defs>
<filter id="filter0_f_52_143" x="7.21056" y="7.50621" width="24.9895" height="25.3265" filterUnits="userSpaceOnUse" color-interpolation-filters="sRGB">
<feFlood flood-opacity="0" result="BackgroundImageFix"/>
<feBlend mode="normal" in="SourceGraphic" in2="BackgroundImageFix" result="shape"/>
<feGaussianBlur stdDeviation="2.34394" result="effect1_foregroundBlur_52_143"/>
</filter>
<filter id="filter1_b_52_143" x="6.50511" y="5.79866" width="37.8197" height="38.5262" filterUnits="userSpaceOnUse" color-interpolation-filters="sRGB">
<feFlood flood-opacity="0" result="BackgroundImageFix"/>
<feGaussianBlur in="BackgroundImageFix" stdDeviation="3.51591"/>
<feComposite in2="SourceAlpha" operator="in" result="effect1_backgroundBlur_52_143"/>
<feBlend mode="normal" in="SourceGraphic" in2="effect1_backgroundBlur_52_143" result="shape"/>
</filter>
<filter id="filter2_bd_52_143" x="15.8065" y="15.3056" width="19.2048" height="19.5103" filterUnits="userSpaceOnUse" color-interpolation-filters="sRGB">
<feFlood flood-opacity="0" result="BackgroundImageFix"/>
<feGaussianBlur in="BackgroundImageFix" stdDeviation="2.19744"/>
<feComposite in2="SourceAlpha" operator="in" result="effect1_backgroundBlur_52_143"/>
<feColorMatrix in="SourceAlpha" type="matrix" values="0 0 0 0 0 0 0 0 0 0 0 0 0 0 0 0 0 0 127 0" result="hardAlpha"/>
<feOffset dx="1.46496" dy="1.46496"/>
<feGaussianBlur stdDeviation="1.46496"/>
<feColorMatrix type="matrix" values="0 0 0 0 0.454902 0 0 0 0 0.870588 0 0 0 0 0.376471 0 0 0 0.5 0"/>
<feBlend mode="normal" in2="effect1_backgroundBlur_52_143" result="effect2_dropShadow_52_143"/>
<feBlend mode="normal" in="SourceGraphic" in2="effect2_dropShadow_52_143" result="shape"/>
</filter>
<linearGradient id="paint0_linear_52_143" x1="7.0002" y1="12.5218" x2="26.5209" y2="24.9985" gradientUnits="userSpaceOnUse">
<stop stop-color="#9BF763"/>
<stop offset="1" stop-color="#26AB5B"/>
</linearGradient>
<linearGradient id="paint1_linear_52_143" x1="17.5182" y1="15.9051" x2="32.8389" y2="34.3188" gradientUnits="userSpaceOnUse">
<stop stop-color="white" stop-opacity="0.25"/>
<stop offset="1" stop-color="white" stop-opacity="0"/>
</linearGradient>
<linearGradient id="paint2_linear_52_143" x1="29.878" y1="21.6364" x2="18.276" y2="22.0039" gradientUnits="userSpaceOnUse">
<stop stop-color="white"/>
<stop offset="1" stop-color="white" stop-opacity="0.2"/>
</linearGradient>
<linearGradient id="paint3_linear_52_143" x1="21.3233" y1="23.2967" x2="30.1671" y2="23.3441" gradientUnits="userSpaceOnUse">
<stop stop-color="white"/>
<stop offset="1" stop-color="white" stop-opacity="0"/>
</linearGradient>
</defs>
</svg>
