<svg xmlns="http://www.w3.org/2000/svg" xmlns:xlink="http://www.w3.org/1999/xlink" width="500" zoomAndPan="magnify" viewBox="0 0 375 149.999998" height="200" preserveAspectRatio="xMidYMid meet" version="1.0"><defs><g/><clipPath id="861cf735a5"><path d="M 7.992188 26.035156 L 367 26.035156 L 367 135 L 7.992188 135 Z M 7.992188 26.035156 " clip-rule="nonzero"/></clipPath><clipPath id="2ee25ce948"><path d="M 33.492188 26.035156 L 341.507812 26.035156 C 348.269531 26.035156 354.753906 28.722656 359.539062 33.503906 C 364.320312 38.285156 367.007812 44.773438 367.007812 51.535156 L 367.007812 109.5 C 367.007812 116.261719 364.320312 122.75 359.539062 127.53125 C 354.753906 132.3125 348.269531 135 341.507812 135 L 33.492188 135 C 26.730469 135 20.246094 132.3125 15.460938 127.53125 C 10.679688 122.75 7.992188 116.261719 7.992188 109.5 L 7.992188 51.535156 C 7.992188 44.773438 10.679688 38.285156 15.460938 33.503906 C 20.246094 28.722656 26.730469 26.035156 33.492188 26.035156 " clip-rule="nonzero"/></clipPath><clipPath id="f03917ba40"><path d="M 39.355469 53.203125 L 94.105469 53.203125 L 94.105469 107.953125 L 39.355469 107.953125 Z M 39.355469 53.203125 " clip-rule="nonzero"/></clipPath><clipPath id="d147d6f125"><path d="M 69.378906 83.226562 L 92.339844 83.226562 L 92.339844 106.1875 L 69.378906 106.1875 Z M 68.496094 107.953125 L 93.222656 107.953125 C 93.710938 107.953125 94.105469 107.558594 94.105469 107.070312 L 94.105469 82.34375 C 94.105469 81.859375 93.710938 81.460938 93.222656 81.460938 L 68.496094 81.460938 C 68.011719 81.460938 67.613281 81.859375 67.613281 82.34375 L 67.613281 107.070312 C 67.613281 107.558594 68.011719 107.953125 68.496094 107.953125 Z M 41.121094 54.96875 L 64.082031 54.96875 L 64.082031 106.1875 L 41.121094 106.1875 Z M 40.238281 107.953125 L 64.964844 107.953125 C 65.453125 107.953125 65.847656 107.558594 65.847656 107.070312 L 65.847656 54.085938 C 65.847656 53.601562 65.453125 53.203125 64.964844 53.203125 L 40.238281 53.203125 C 39.753906 53.203125 39.355469 53.601562 39.355469 54.085938 L 39.355469 107.070312 C 39.355469 107.558594 39.753906 107.953125 40.238281 107.953125 Z M 69.378906 54.96875 L 92.339844 54.96875 L 92.339844 77.929688 L 69.378906 77.929688 Z M 68.496094 79.695312 L 93.222656 79.695312 C 93.710938 79.695312 94.105469 79.300781 94.105469 78.8125 L 94.105469 54.085938 C 94.105469 53.601562 93.710938 53.203125 93.222656 53.203125 L 68.496094 53.203125 C 68.011719 53.203125 67.613281 53.601562 67.613281 54.085938 L 67.613281 78.8125 C 67.613281 79.300781 68.011719 79.695312 68.496094 79.695312 Z M 68.496094 79.695312 " clip-rule="nonzero"/></clipPath><clipPath id="f51a237720"><path d="M 69.378906 83.226562 L 92.339844 83.226562 L 92.339844 106.1875 L 69.378906 106.1875 Z M 68.496094 107.953125 L 93.222656 107.953125 C 93.710938 107.953125 94.105469 107.558594 94.105469 107.070312 L 94.105469 82.34375 C 94.105469 81.859375 93.710938 81.460938 93.222656 81.460938 L 68.496094 81.460938 C 68.011719 81.460938 67.613281 81.859375 67.613281 82.34375 L 67.613281 107.070312 C 67.613281 107.558594 68.011719 107.953125 68.496094 107.953125 Z M 41.121094 54.96875 L 64.082031 54.96875 L 64.082031 106.1875 L 41.121094 106.1875 Z M 40.238281 107.953125 L 64.964844 107.953125 C 65.453125 107.953125 65.847656 107.558594 65.847656 107.070312 L 65.847656 54.085938 C 65.847656 53.601562 65.453125 53.203125 64.964844 53.203125 L 40.238281 53.203125 C 39.753906 53.203125 39.355469 53.601562 39.355469 54.085938 L 39.355469 107.070312 C 39.355469 107.558594 39.753906 107.953125 40.238281 107.953125 Z M 69.378906 54.96875 L 92.339844 54.96875 L 92.339844 77.929688 L 69.378906 77.929688 Z M 68.496094 79.695312 L 93.222656 79.695312 C 93.710938 79.695312 94.105469 79.300781 94.105469 78.8125 L 94.105469 54.085938 C 94.105469 53.601562 93.710938 53.203125 93.222656 53.203125 L 68.496094 53.203125 C 68.011719 53.203125 67.613281 53.601562 67.613281 54.085938 L 67.613281 78.8125 C 67.613281 79.300781 68.011719 79.695312 68.496094 79.695312 " clip-rule="nonzero"/></clipPath><linearGradient x1="0.0000000175725" gradientTransform="matrix(0, -54.749995, 54.749995, 0, 66.731279, 107.954227)" y1="0" x2="1" gradientUnits="userSpaceOnUse" y2="0" id="ad5413250c"><stop stop-opacity="1" stop-color="rgb(32.499695%, 77.999878%, 92.199707%)" offset="0"/><stop stop-opacity="1" stop-color="rgb(32.499695%, 77.999878%, 92.355347%)" offset="0.03125"/><stop stop-opacity="1" stop-color="rgb(32.501221%, 77.999878%, 92.704773%)" offset="0.0390625"/><stop stop-opacity="1" stop-color="rgb(32.698059%, 77.999878%, 92.89856%)" offset="0.046875"/><stop stop-opacity="1" stop-color="rgb(32.896423%, 77.807617%, 92.89856%)" offset="0.0546875"/><stop stop-opacity="1" stop-color="rgb(32.711792%, 77.46582%, 92.710876%)" offset="0.0625"/><stop stop-opacity="1" stop-color="rgb(32.519531%, 77.301025%, 92.520142%)" offset="0.0703125"/><stop stop-opacity="1" stop-color="rgb(32.713318%, 77.084351%, 92.706299%)" offset="0.0742188"/><stop stop-opacity="1" stop-color="rgb(32.911682%, 76.885986%, 92.89856%)" offset="0.078125"/><stop stop-opacity="1" stop-color="rgb(33.105469%, 76.6922%, 92.89856%)" offset="0.0859375"/><stop stop-opacity="1" stop-color="rgb(33.299255%, 76.112366%, 92.89856%)" offset="0.0898437"/><stop stop-opacity="1" stop-color="rgb(33.299255%, 75.724792%, 92.89856%)" offset="0.09375"/><stop stop-opacity="1" stop-color="rgb(33.299255%, 75.71106%, 92.89856%)" offset="0.101562"/><stop stop-opacity="1" stop-color="rgb(33.317566%, 75.480652%, 92.89856%)" offset="0.105469"/><stop stop-opacity="1" stop-color="rgb(33.337402%, 75.262451%, 92.89856%)" offset="0.109375"/><stop stop-opacity="1" stop-color="rgb(33.517456%, 75.071716%, 92.89856%)" offset="0.117187"/><stop stop-opacity="1" stop-color="rgb(33.898926%, 74.490356%, 92.89856%)" offset="0.121094"/><stop stop-opacity="1" stop-color="rgb(34.098816%, 74.099731%, 92.89856%)" offset="0.125"/><stop stop-opacity="1" stop-color="rgb(34.098816%, 73.908997%, 92.89856%)" offset="0.132812"/><stop stop-opacity="1" stop-color="rgb(34.098816%, 73.327637%, 92.698669%)" offset="0.136719"/><stop stop-opacity="1" stop-color="rgb(34.098816%, 72.937012%, 92.498779%)" offset="0.140625"/><stop stop-opacity="1" stop-color="rgb(34.120178%, 72.546387%, 92.326355%)" offset="0.144531"/><stop stop-opacity="1" stop-color="rgb(34.143066%, 72.155762%, 92.155457%)" offset="0.148438"/><stop stop-opacity="1" stop-color="rgb(34.333801%, 71.965027%, 91.964722%)" offset="0.15625"/><stop stop-opacity="1" stop-color="rgb(34.912109%, 71.383667%, 91.386414%)" offset="0.160156"/><stop stop-opacity="1" stop-color="rgb(35.299683%, 70.993042%, 90.99884%)" offset="0.164062"/><stop stop-opacity="1" stop-color="rgb(35.493469%, 70.796204%, 90.99884%)" offset="0.167969"/><stop stop-opacity="1" stop-color="rgb(35.687256%, 70.599365%, 90.99884%)" offset="0.171875"/><stop stop-opacity="1" stop-color="rgb(35.693359%, 70.214844%, 90.79895%)" offset="0.175781"/><stop stop-opacity="1" stop-color="rgb(35.699463%, 69.830322%, 90.59906%)" offset="0.179687"/><stop stop-opacity="1" stop-color="rgb(35.899353%, 69.613647%, 90.39917%)" offset="0.183594"/><stop stop-opacity="1" stop-color="rgb(36.099243%, 69.398499%, 90.19928%)" offset="0.1875"/><stop stop-opacity="1" stop-color="rgb(36.314392%, 68.983459%, 89.982605%)" offset="0.191406"/><stop stop-opacity="1" stop-color="rgb(36.531067%, 68.56842%, 89.767456%)" offset="0.195312"/><stop stop-opacity="1" stop-color="rgb(36.920166%, 68.183899%, 89.576721%)" offset="0.199219"/><stop stop-opacity="1" stop-color="rgb(37.309265%, 67.799377%, 89.385986%)" offset="0.203125"/><stop stop-opacity="1" stop-color="rgb(37.651062%, 67.651367%, 89.1922%)" offset="0.207031"/><stop stop-opacity="1" stop-color="rgb(37.992859%, 67.503357%, 88.999939%)" offset="0.210937"/><stop stop-opacity="1" stop-color="rgb(38.183594%, 67.112732%, 88.612366%)" offset="0.214844"/><stop stop-opacity="1" stop-color="rgb(38.374329%, 66.723633%, 88.224792%)" offset="0.21875"/><stop stop-opacity="1" stop-color="rgb(38.586426%, 66.333008%, 88.034058%)" offset="0.222656"/><stop stop-opacity="1" stop-color="rgb(38.798523%, 65.942383%, 87.843323%)" offset="0.226562"/><stop stop-opacity="1" stop-color="rgb(39.016724%, 65.519714%, 87.670898%)" offset="0.230469"/><stop stop-opacity="1" stop-color="rgb(39.23645%, 65.098572%, 87.5%)" offset="0.234375"/><stop stop-opacity="1" stop-color="rgb(39.627075%, 64.889526%, 87.289429%)" offset="0.238281"/><stop stop-opacity="1" stop-color="rgb(40.0177%, 64.680481%, 87.080383%)" offset="0.242187"/><stop stop-opacity="1" stop-color="rgb(40.208435%, 64.289856%, 86.889648%)" offset="0.246094"/><stop stop-opacity="1" stop-color="rgb(40.39917%, 63.899231%, 86.698914%)" offset="0.25"/><stop stop-opacity="1" stop-color="rgb(40.59906%, 63.508606%, 86.499023%)" offset="0.253906"/><stop stop-opacity="1" stop-color="rgb(40.79895%, 63.117981%, 86.299133%)" offset="0.257812"/><stop stop-opacity="1" stop-color="rgb(41.38031%, 62.771606%, 86.099243%)" offset="0.261719"/><stop stop-opacity="1" stop-color="rgb(41.96167%, 62.426758%, 85.899353%)" offset="0.265625"/><stop stop-opacity="1" stop-color="rgb(42.196655%, 62.190247%, 85.676575%)" offset="0.269531"/><stop stop-opacity="1" stop-color="rgb(42.431641%, 61.955261%, 85.455322%)" offset="0.273438"/><stop stop-opacity="1" stop-color="rgb(42.778015%, 61.564636%, 85.076904%)" offset="0.277344"/><stop stop-opacity="1" stop-color="rgb(43.12439%, 61.174011%, 84.698486%)" offset="0.28125"/><stop stop-opacity="1" stop-color="rgb(43.515015%, 60.783386%, 84.495544%)" offset="0.285156"/><stop stop-opacity="1" stop-color="rgb(43.90564%, 60.392761%, 84.292603%)" offset="0.289062"/><stop stop-opacity="1" stop-color="rgb(44.296265%, 60.002136%, 84.095764%)" offset="0.292969"/><stop stop-opacity="1" stop-color="rgb(44.68689%, 59.611511%, 83.898926%)" offset="0.296875"/><stop stop-opacity="1" stop-color="rgb(45.077515%, 59.220886%, 83.699036%)" offset="0.300781"/><stop stop-opacity="1" stop-color="rgb(45.46814%, 58.830261%, 83.499146%)" offset="0.304688"/><stop stop-opacity="1" stop-color="rgb(45.858765%, 58.439636%, 83.123779%)" offset="0.308594"/><stop stop-opacity="1" stop-color="rgb(46.24939%, 58.049011%, 82.749939%)" offset="0.3125"/><stop stop-opacity="1" stop-color="rgb(46.885681%, 57.458496%, 82.559204%)" offset="0.316406"/><stop stop-opacity="1" stop-color="rgb(47.521973%, 56.867981%, 82.368469%)" offset="0.320312"/><stop stop-opacity="1" stop-color="rgb(47.866821%, 56.477356%, 81.983948%)" offset="0.324219"/><stop stop-opacity="1" stop-color="rgb(48.21167%, 56.086731%, 81.599426%)" offset="0.328125"/><stop stop-opacity="1" stop-color="rgb(48.602295%, 55.696106%, 81.402588%)" offset="0.332031"/><stop stop-opacity="1" stop-color="rgb(48.99292%, 55.305481%, 81.20575%)" offset="0.335938"/><stop stop-opacity="1" stop-color="rgb(49.383545%, 54.914856%, 81.015015%)" offset="0.339844"/><stop stop-opacity="1" stop-color="rgb(49.77417%, 54.524231%, 80.82428%)" offset="0.34375"/><stop stop-opacity="1" stop-color="rgb(50.164795%, 54.133606%, 80.610657%)" offset="0.347656"/><stop stop-opacity="1" stop-color="rgb(50.55542%, 53.742981%, 80.39856%)" offset="0.351562"/><stop stop-opacity="1" stop-color="rgb(50.996399%, 53.302002%, 79.998779%)" offset="0.355469"/><stop stop-opacity="1" stop-color="rgb(51.437378%, 52.861023%, 79.598999%)" offset="0.359375"/><stop stop-opacity="1" stop-color="rgb(51.626587%, 52.511597%, 79.399109%)" offset="0.363281"/><stop stop-opacity="1" stop-color="rgb(51.817322%, 52.16217%, 79.199219%)" offset="0.367187"/><stop stop-opacity="1" stop-color="rgb(52.157593%, 51.580811%, 78.999329%)" offset="0.371094"/><stop stop-opacity="1" stop-color="rgb(52.49939%, 50.999451%, 78.799438%)" offset="0.375"/><stop stop-opacity="1" stop-color="rgb(52.890015%, 50.608826%, 78.599548%)" offset="0.378906"/><stop stop-opacity="1" stop-color="rgb(53.28064%, 50.218201%, 78.399658%)" offset="0.382812"/><stop stop-opacity="1" stop-color="rgb(53.671265%, 49.827576%, 78.199768%)" offset="0.386719"/><stop stop-opacity="1" stop-color="rgb(54.06189%, 49.436951%, 77.999878%)" offset="0.390625"/><stop stop-opacity="1" stop-color="rgb(54.47998%, 48.995972%, 77.648926%)" offset="0.394531"/><stop stop-opacity="1" stop-color="rgb(54.899597%, 48.554993%, 77.2995%)" offset="0.398437"/><stop stop-opacity="1" stop-color="rgb(55.111694%, 48.167419%, 77.099609%)" offset="0.402344"/><stop stop-opacity="1" stop-color="rgb(55.323792%, 47.779846%, 76.899719%)" offset="0.40625"/><stop stop-opacity="1" stop-color="rgb(55.714417%, 47.436523%, 76.699829%)" offset="0.410156"/><stop stop-opacity="1" stop-color="rgb(56.105042%, 47.093201%, 76.499939%)" offset="0.414062"/><stop stop-opacity="1" stop-color="rgb(56.495667%, 46.702576%, 76.306152%)" offset="0.417969"/><stop stop-opacity="1" stop-color="rgb(56.886292%, 46.311951%, 76.112366%)" offset="0.421875"/><stop stop-opacity="1" stop-color="rgb(57.092285%, 45.921326%, 75.921631%)" offset="0.425781"/><stop stop-opacity="1" stop-color="rgb(57.299805%, 45.530701%, 75.730896%)" offset="0.429687"/><stop stop-opacity="1" stop-color="rgb(57.624817%, 45.339966%, 75.540161%)" offset="0.433594"/><stop stop-opacity="1" stop-color="rgb(57.949829%, 45.149231%, 75.349426%)" offset="0.4375"/><stop stop-opacity="1" stop-color="rgb(58.389282%, 44.708252%, 75.123596%)" offset="0.441406"/><stop stop-opacity="1" stop-color="rgb(58.830261%, 44.267273%, 74.899292%)" offset="0.445312"/><stop stop-opacity="1" stop-color="rgb(59.220886%, 43.876648%, 74.699402%)" offset="0.449219"/><stop stop-opacity="1" stop-color="rgb(59.611511%, 43.486023%, 74.499512%)" offset="0.453125"/><stop stop-opacity="1" stop-color="rgb(60.002136%, 43.095398%, 74.302673%)" offset="0.457031"/><stop stop-opacity="1" stop-color="rgb(60.392761%, 42.704773%, 74.105835%)" offset="0.460937"/><stop stop-opacity="1" stop-color="rgb(60.983276%, 42.364502%, 73.9151%)" offset="0.464844"/><stop stop-opacity="1" stop-color="rgb(61.573792%, 42.024231%, 73.724365%)" offset="0.46875"/><stop stop-opacity="1" stop-color="rgb(61.964417%, 41.633606%, 73.53363%)" offset="0.472656"/><stop stop-opacity="1" stop-color="rgb(62.355042%, 41.242981%, 73.342896%)" offset="0.476562"/><stop stop-opacity="1" stop-color="rgb(62.763977%, 40.802002%, 73.120117%)" offset="0.480469"/><stop stop-opacity="1" stop-color="rgb(63.174438%, 40.361023%, 72.898865%)" offset="0.484375"/><stop stop-opacity="1" stop-color="rgb(63.745117%, 39.970398%, 72.698975%)" offset="0.488281"/><stop stop-opacity="1" stop-color="rgb(64.317322%, 39.579773%, 72.499084%)" offset="0.492187"/><stop stop-opacity="1" stop-color="rgb(64.707947%, 39.189148%, 72.348022%)" offset="0.496094"/><stop stop-opacity="1" stop-color="rgb(65.098572%, 38.798523%, 72.198486%)" offset="0.5"/><stop stop-opacity="1" stop-color="rgb(65.489197%, 38.607788%, 72.198486%)" offset="0.503906"/><stop stop-opacity="1" stop-color="rgb(65.879822%, 38.418579%, 72.198486%)" offset="0.507812"/><stop stop-opacity="1" stop-color="rgb(66.088867%, 38.227844%, 71.998596%)" offset="0.511719"/><stop stop-opacity="1" stop-color="rgb(66.299438%, 38.037109%, 71.798706%)" offset="0.515625"/><stop stop-opacity="1" stop-color="rgb(66.520691%, 37.995911%, 71.798706%)" offset="0.519531"/><stop stop-opacity="1" stop-color="rgb(66.743469%, 37.956238%, 71.798706%)" offset="0.523438"/><stop stop-opacity="1" stop-color="rgb(67.131042%, 37.768555%, 71.598816%)" offset="0.527344"/><stop stop-opacity="1" stop-color="rgb(67.518616%, 37.580872%, 71.398926%)" offset="0.53125"/><stop stop-opacity="1" stop-color="rgb(67.861938%, 37.435913%, 71.398926%)" offset="0.535156"/><stop stop-opacity="1" stop-color="rgb(68.205261%, 37.29248%, 71.398926%)" offset="0.539062"/><stop stop-opacity="1" stop-color="rgb(68.4021%, 36.901855%, 71.205139%)" offset="0.542969"/><stop stop-opacity="1" stop-color="rgb(68.598938%, 36.51123%, 71.011353%)" offset="0.546875"/><stop stop-opacity="1" stop-color="rgb(68.983459%, 36.320496%, 71.005249%)" offset="0.550781"/><stop stop-opacity="1" stop-color="rgb(69.367981%, 36.129761%, 70.999146%)" offset="0.554688"/><stop stop-opacity="1" stop-color="rgb(69.558716%, 36.114502%, 70.823669%)" offset="0.5625"/><stop stop-opacity="1" stop-color="rgb(69.989014%, 35.882568%, 70.623779%)" offset="0.566406"/><stop stop-opacity="1" stop-color="rgb(70.230103%, 35.667419%, 70.599365%)" offset="0.570312"/><stop stop-opacity="1" stop-color="rgb(70.620728%, 35.282898%, 70.399475%)" offset="0.574219"/><stop stop-opacity="1" stop-color="rgb(71.011353%, 34.899902%, 70.199585%)" offset="0.578125"/><stop stop-opacity="1" stop-color="rgb(71.401978%, 34.703064%, 70.199585%)" offset="0.582031"/><stop stop-opacity="1" stop-color="rgb(71.792603%, 34.506226%, 70.199585%)" offset="0.585938"/><stop stop-opacity="1" stop-color="rgb(71.995544%, 34.115601%, 69.999695%)" offset="0.589844"/><stop stop-opacity="1" stop-color="rgb(72.198486%, 33.724976%, 69.799805%)" offset="0.59375"/><stop stop-opacity="1" stop-color="rgb(72.72644%, 33.534241%, 69.799805%)" offset="0.597656"/><stop stop-opacity="1" stop-color="rgb(73.25592%, 33.343506%, 69.799805%)" offset="0.601562"/><stop stop-opacity="1" stop-color="rgb(73.495483%, 33.302307%, 69.598389%)" offset="0.605469"/><stop stop-opacity="1" stop-color="rgb(73.736572%, 33.261108%, 69.398499%)" offset="0.609375"/><stop stop-opacity="1" stop-color="rgb(74.127197%, 33.070374%, 69.389343%)" offset="0.613281"/><stop stop-opacity="1" stop-color="rgb(74.517822%, 32.881165%, 69.380188%)" offset="0.617188"/><stop stop-opacity="1" stop-color="rgb(74.908447%, 32.539368%, 69.189453%)" offset="0.621094"/><stop stop-opacity="1" stop-color="rgb(75.299072%, 32.199097%, 68.998718%)" offset="0.625"/><stop stop-opacity="1" stop-color="rgb(75.889587%, 31.999207%, 68.807983%)" offset="0.628906"/><stop stop-opacity="1" stop-color="rgb(76.480103%, 31.799316%, 68.617249%)" offset="0.632812"/><stop stop-opacity="1" stop-color="rgb(76.670837%, 31.599426%, 68.608093%)" offset="0.636719"/><stop stop-opacity="1" stop-color="rgb(76.861572%, 31.399536%, 68.598938%)" offset="0.640625"/><stop stop-opacity="1" stop-color="rgb(77.096558%, 30.999756%, 68.399048%)" offset="0.644531"/><stop stop-opacity="1" stop-color="rgb(77.331543%, 30.599976%, 68.199158%)" offset="0.648438"/><stop stop-opacity="1" stop-color="rgb(77.877808%, 30.39856%, 68.199158%)" offset="0.652344"/><stop stop-opacity="1" stop-color="rgb(78.424072%, 30.198669%, 68.199158%)" offset="0.65625"/><stop stop-opacity="1" stop-color="rgb(78.814697%, 29.995728%, 67.999268%)" offset="0.660156"/><stop stop-opacity="1" stop-color="rgb(79.205322%, 29.792786%, 67.799377%)" offset="0.664062"/><stop stop-opacity="1" stop-color="rgb(79.595947%, 29.402161%, 67.799377%)" offset="0.667969"/><stop stop-opacity="1" stop-color="rgb(79.986572%, 29.011536%, 67.799377%)" offset="0.671875"/><stop stop-opacity="1" stop-color="rgb(80.377197%, 28.820801%, 67.648315%)" offset="0.675781"/><stop stop-opacity="1" stop-color="rgb(80.767822%, 28.630066%, 67.498779%)" offset="0.679688"/><stop stop-opacity="1" stop-color="rgb(81.158447%, 28.439331%, 67.498779%)" offset="0.683594"/><stop stop-opacity="1" stop-color="rgb(81.549072%, 28.248596%, 67.498779%)" offset="0.6875"/><stop stop-opacity="1" stop-color="rgb(81.985474%, 27.87323%, 67.298889%)" offset="0.691406"/><stop stop-opacity="1" stop-color="rgb(82.423401%, 27.49939%, 67.098999%)" offset="0.695312"/><stop stop-opacity="1" stop-color="rgb(82.766724%, 27.293396%, 66.899109%)" offset="0.699219"/><stop stop-opacity="1" stop-color="rgb(83.111572%, 27.087402%, 66.699219%)" offset="0.703125"/><stop stop-opacity="1" stop-color="rgb(83.502197%, 26.696777%, 66.699219%)" offset="0.707031"/><stop stop-opacity="1" stop-color="rgb(83.892822%, 26.306152%, 66.699219%)" offset="0.710938"/><stop stop-opacity="1" stop-color="rgb(84.483337%, 26.115417%, 66.499329%)" offset="0.714844"/><stop stop-opacity="1" stop-color="rgb(85.073853%, 25.924683%, 66.299438%)" offset="0.71875"/><stop stop-opacity="1" stop-color="rgb(85.464478%, 25.534058%, 66.120911%)" offset="0.722656"/><stop stop-opacity="1" stop-color="rgb(85.855103%, 25.143433%, 65.942383%)" offset="0.726562"/><stop stop-opacity="1" stop-color="rgb(86.276245%, 24.902344%, 65.901184%)" offset="0.730469"/><stop stop-opacity="1" stop-color="rgb(86.698914%, 24.661255%, 65.861511%)" offset="0.734375"/><stop stop-opacity="1" stop-color="rgb(86.898804%, 24.479675%, 65.679932%)" offset="0.738281"/><stop stop-opacity="1" stop-color="rgb(87.098694%, 24.299622%, 65.499878%)" offset="0.742188"/><stop stop-opacity="1" stop-color="rgb(87.298584%, 24.099731%, 65.298462%)" offset="0.746094"/><stop stop-opacity="1" stop-color="rgb(87.5%, 23.899841%, 65.098572%)" offset="0.75"/><stop stop-opacity="1" stop-color="rgb(87.649536%, 23.899841%, 64.707947%)" offset="0.753906"/><stop stop-opacity="1" stop-color="rgb(87.799072%, 23.899841%, 64.317322%)" offset="0.757812"/><stop stop-opacity="1" stop-color="rgb(87.980652%, 23.718262%, 63.926697%)" offset="0.761719"/><stop stop-opacity="1" stop-color="rgb(88.162231%, 23.536682%, 63.536072%)" offset="0.765625"/><stop stop-opacity="1" stop-color="rgb(88.380432%, 23.495483%, 62.945557%)" offset="0.769531"/><stop stop-opacity="1" stop-color="rgb(88.598633%, 23.455811%, 62.355042%)" offset="0.773438"/><stop stop-opacity="1" stop-color="rgb(88.61084%, 23.277283%, 61.952209%)" offset="0.777344"/><stop stop-opacity="1" stop-color="rgb(88.624573%, 23.098755%, 61.549377%)" offset="0.78125"/><stop stop-opacity="1" stop-color="rgb(88.812256%, 22.898865%, 60.971069%)" offset="0.785156"/><stop stop-opacity="1" stop-color="rgb(88.999939%, 22.698975%, 60.392761%)" offset="0.789062"/><stop stop-opacity="1" stop-color="rgb(89.1922%, 22.698975%, 59.80835%)" offset="0.792969"/><stop stop-opacity="1" stop-color="rgb(89.385986%, 22.698975%, 59.223938%)" offset="0.796875"/><stop stop-opacity="1" stop-color="rgb(89.576721%, 22.549438%, 58.827209%)" offset="0.800781"/><stop stop-opacity="1" stop-color="rgb(89.767456%, 22.399902%, 58.430481%)" offset="0.804688"/><stop stop-opacity="1" stop-color="rgb(89.782715%, 22.399902%, 57.88269%)" offset="0.808594"/><stop stop-opacity="1" stop-color="rgb(89.7995%, 22.399902%, 57.336426%)" offset="0.8125"/><stop stop-opacity="1" stop-color="rgb(89.99939%, 22.198486%, 56.70166%)" offset="0.816406"/><stop stop-opacity="1" stop-color="rgb(90.19928%, 21.998596%, 56.06842%)" offset="0.820312"/><stop stop-opacity="1" stop-color="rgb(90.39917%, 21.998596%, 55.477905%)" offset="0.824219"/><stop stop-opacity="1" stop-color="rgb(90.59906%, 21.998596%, 54.88739%)" offset="0.828125"/><stop stop-opacity="1" stop-color="rgb(90.59906%, 22.195435%, 54.496765%)" offset="0.832031"/><stop stop-opacity="1" stop-color="rgb(90.59906%, 22.392273%, 54.10614%)" offset="0.835938"/><stop stop-opacity="1" stop-color="rgb(90.786743%, 22.395325%, 53.514099%)" offset="0.839844"/><stop stop-opacity="1" stop-color="rgb(90.974426%, 22.399902%, 52.923584%)" offset="0.84375"/><stop stop-opacity="1" stop-color="rgb(90.986633%, 22.198486%, 52.383423%)" offset="0.847656"/><stop stop-opacity="1" stop-color="rgb(90.99884%, 21.998596%, 51.843262%)" offset="0.851562"/><stop stop-opacity="1" stop-color="rgb(91.017151%, 21.998596%, 51.383972%)" offset="0.855469"/><stop stop-opacity="1" stop-color="rgb(91.036987%, 21.998596%, 50.924683%)" offset="0.859375"/><stop stop-opacity="1" stop-color="rgb(91.217041%, 21.989441%, 50.343323%)" offset="0.863281"/><stop stop-opacity="1" stop-color="rgb(91.398621%, 21.980286%, 49.761963%)" offset="0.867188"/><stop stop-opacity="1" stop-color="rgb(91.598511%, 21.789551%, 49.180603%)" offset="0.871094"/><stop stop-opacity="1" stop-color="rgb(91.799927%, 21.598816%, 48.599243%)" offset="0.875"/><stop stop-opacity="1" stop-color="rgb(91.989136%, 21.408081%, 48.05603%)" offset="0.878906"/><stop stop-opacity="1" stop-color="rgb(92.179871%, 21.217346%, 47.512817%)" offset="0.882812"/><stop stop-opacity="1" stop-color="rgb(92.324829%, 21.208191%, 46.943665%)" offset="0.886719"/><stop stop-opacity="1" stop-color="rgb(92.471313%, 21.199036%, 46.374512%)" offset="0.890625"/><stop stop-opacity="1" stop-color="rgb(92.684937%, 21.199036%, 45.915222%)" offset="0.894531"/><stop stop-opacity="1" stop-color="rgb(92.89856%, 21.199036%, 45.455933%)" offset="0.898438"/><stop stop-opacity="1" stop-color="rgb(92.910767%, 21.199036%, 44.865417%)" offset="0.902344"/><stop stop-opacity="1" stop-color="rgb(92.9245%, 21.199036%, 44.274902%)" offset="0.90625"/><stop stop-opacity="1" stop-color="rgb(93.115234%, 21.199036%, 43.682861%)" offset="0.910156"/><stop stop-opacity="1" stop-color="rgb(93.305969%, 21.199036%, 43.092346%)" offset="0.914062"/><stop stop-opacity="1" stop-color="rgb(93.502808%, 21.005249%, 42.750549%)" offset="0.917969"/><stop stop-opacity="1" stop-color="rgb(93.699646%, 20.811462%, 42.408752%)" offset="0.921875"/><stop stop-opacity="1" stop-color="rgb(93.882751%, 20.805359%, 41.819763%)" offset="0.925781"/><stop stop-opacity="1" stop-color="rgb(94.067383%, 20.799255%, 41.230774%)" offset="0.929688"/><stop stop-opacity="1" stop-color="rgb(94.082642%, 20.799255%, 40.840149%)" offset="0.933594"/><stop stop-opacity="1" stop-color="rgb(94.099426%, 20.799255%, 40.449524%)" offset="0.9375"/><stop stop-opacity="1" stop-color="rgb(94.099426%, 20.799255%, 39.808655%)" offset="0.941406"/><stop stop-opacity="1" stop-color="rgb(94.099426%, 20.799255%, 39.167786%)" offset="0.945313"/><stop stop-opacity="1" stop-color="rgb(94.099426%, 20.799255%, 38.777161%)" offset="0.949219"/><stop stop-opacity="1" stop-color="rgb(94.099426%, 20.799255%, 38.386536%)" offset="0.953125"/><stop stop-opacity="1" stop-color="rgb(94.099426%, 20.602417%, 37.8479%)" offset="0.957031"/><stop stop-opacity="1" stop-color="rgb(94.099426%, 20.405579%, 37.310791%)" offset="0.960938"/><stop stop-opacity="1" stop-color="rgb(94.099426%, 20.602417%, 36.917114%)" offset="0.964844"/><stop stop-opacity="1" stop-color="rgb(94.099426%, 20.799255%, 36.524963%)" offset="0.96875"/><stop stop-opacity="1" stop-color="rgb(94.099426%, 20.799255%, 35.932922%)" offset="0.972656"/><stop stop-opacity="1" stop-color="rgb(94.099426%, 20.799255%, 35.342407%)" offset="0.976562"/><stop stop-opacity="1" stop-color="rgb(94.099426%, 20.999146%, 34.701538%)" offset="0.980469"/><stop stop-opacity="1" stop-color="rgb(94.099426%, 21.199036%, 34.062195%)" offset="0.984375"/><stop stop-opacity="1" stop-color="rgb(94.099426%, 21.199036%, 33.862305%)" offset="0.988281"/><stop stop-opacity="1" stop-color="rgb(94.099426%, 21.199036%, 33.662415%)" offset="0.992188"/><stop stop-opacity="1" stop-color="rgb(94.099426%, 21.199036%, 33.081055%)" offset="0.996094"/><stop stop-opacity="1" stop-color="rgb(94.099426%, 21.199036%, 32.499695%)" offset="1"/></linearGradient></defs><g clip-path="url(#861cf735a5)"><g clip-path="url(#2ee25ce948)"><path fill="#ffffff" d="M 7.992188 26.035156 L 366.710938 26.035156 L 366.710938 134.917969 L 7.992188 134.917969 Z M 7.992188 26.035156 " fill-opacity="1" fill-rule="nonzero"/></g></g><g fill="#811e2f" fill-opacity="1"><g transform="translate(112.694789, 89.226595)"><g><path d="M 11.03125 0.265625 C 9.164062 0.265625 7.476562 -0.140625 5.96875 -0.953125 C 4.46875 -1.773438 3.289062 -2.90625 2.4375 -4.34375 C 1.582031 -5.789062 1.15625 -7.421875 1.15625 -9.234375 C 1.15625 -11.046875 1.585938 -12.671875 2.453125 -14.109375 C 3.316406 -15.546875 4.5 -16.671875 6 -17.484375 C 7.5 -18.304688 9.179688 -18.71875 11.046875 -18.71875 C 12.554688 -18.71875 13.9375 -18.453125 15.1875 -17.921875 C 16.4375 -17.398438 17.492188 -16.640625 18.359375 -15.640625 L 16.140625 -13.5625 C 14.804688 -15 13.160156 -15.71875 11.203125 -15.71875 C 9.941406 -15.71875 8.804688 -15.441406 7.796875 -14.890625 C 6.796875 -14.335938 6.015625 -13.566406 5.453125 -12.578125 C 4.890625 -11.597656 4.609375 -10.484375 4.609375 -9.234375 C 4.609375 -7.984375 4.890625 -6.863281 5.453125 -5.875 C 6.015625 -4.894531 6.796875 -4.128906 7.796875 -3.578125 C 8.804688 -3.023438 9.941406 -2.75 11.203125 -2.75 C 13.160156 -2.75 14.804688 -3.476562 16.140625 -4.9375 L 18.359375 -2.828125 C 17.492188 -1.816406 16.429688 -1.046875 15.171875 -0.515625 C 13.921875 0.00390625 12.539062 0.265625 11.03125 0.265625 Z M 11.03125 0.265625 "/></g></g></g><g fill="#811e2f" fill-opacity="1"><g transform="translate(131.868454, 89.226595)"><g><path d="M 8.5 0.1875 C 7.070312 0.1875 5.785156 -0.117188 4.640625 -0.734375 C 3.492188 -1.347656 2.597656 -2.203125 1.953125 -3.296875 C 1.316406 -4.398438 1 -5.648438 1 -7.046875 C 1 -8.429688 1.316406 -9.664062 1.953125 -10.75 C 2.597656 -11.84375 3.492188 -12.695312 4.640625 -13.3125 C 5.785156 -13.9375 7.070312 -14.25 8.5 -14.25 C 9.9375 -14.25 11.222656 -13.9375 12.359375 -13.3125 C 13.503906 -12.695312 14.398438 -11.84375 15.046875 -10.75 C 15.691406 -9.664062 16.015625 -8.429688 16.015625 -7.046875 C 16.015625 -5.648438 15.691406 -4.398438 15.046875 -3.296875 C 14.398438 -2.203125 13.503906 -1.347656 12.359375 -0.734375 C 11.222656 -0.117188 9.9375 0.1875 8.5 0.1875 Z M 8.5 -2.640625 C 9.707031 -2.640625 10.707031 -3.039062 11.5 -3.84375 C 12.289062 -4.65625 12.6875 -5.722656 12.6875 -7.046875 C 12.6875 -8.359375 12.289062 -9.421875 11.5 -10.234375 C 10.707031 -11.046875 9.707031 -11.453125 8.5 -11.453125 C 7.28125 -11.453125 6.28125 -11.046875 5.5 -10.234375 C 4.71875 -9.421875 4.328125 -8.359375 4.328125 -7.046875 C 4.328125 -5.722656 4.71875 -4.65625 5.5 -3.84375 C 6.28125 -3.039062 7.28125 -2.640625 8.5 -2.640625 Z M 8.5 -2.640625 "/></g></g></g><g fill="#811e2f" fill-opacity="1"><g transform="translate(148.879479, 89.226595)"><g><path d="M 2.15625 -19.5625 L 5.453125 -19.5625 L 5.453125 0 L 2.15625 0 Z M 2.15625 -19.5625 "/></g></g></g><g fill="#811e2f" fill-opacity="1"><g transform="translate(156.501476, 89.226595)"><g><path d="M 2.15625 -19.5625 L 5.453125 -19.5625 L 5.453125 0 L 2.15625 0 Z M 2.15625 -19.5625 "/></g></g></g><g fill="#811e2f" fill-opacity="1"><g transform="translate(164.123473, 89.226595)"><g><path d="M 7.546875 -14.25 C 9.617188 -14.25 11.203125 -13.75 12.296875 -12.75 C 13.398438 -11.757812 13.953125 -10.257812 13.953125 -8.25 L 13.953125 0 L 10.84375 0 L 10.84375 -1.71875 C 10.4375 -1.101562 9.859375 -0.628906 9.109375 -0.296875 C 8.359375 0.0234375 7.457031 0.1875 6.40625 0.1875 C 5.351562 0.1875 4.429688 0.0078125 3.640625 -0.34375 C 2.847656 -0.707031 2.234375 -1.210938 1.796875 -1.859375 C 1.367188 -2.503906 1.15625 -3.226562 1.15625 -4.03125 C 1.15625 -5.300781 1.625 -6.316406 2.5625 -7.078125 C 3.507812 -7.847656 4.992188 -8.234375 7.015625 -8.234375 L 10.65625 -8.234375 L 10.65625 -8.4375 C 10.65625 -9.425781 10.359375 -10.179688 9.765625 -10.703125 C 9.179688 -11.234375 8.304688 -11.5 7.140625 -11.5 C 6.347656 -11.5 5.570312 -11.375 4.8125 -11.125 C 4.050781 -10.882812 3.40625 -10.546875 2.875 -10.109375 L 1.578125 -12.5 C 2.316406 -13.0625 3.203125 -13.492188 4.234375 -13.796875 C 5.273438 -14.097656 6.378906 -14.25 7.546875 -14.25 Z M 7.09375 -2.21875 C 7.914062 -2.21875 8.648438 -2.40625 9.296875 -2.78125 C 9.941406 -3.15625 10.394531 -3.695312 10.65625 -4.40625 L 10.65625 -6.046875 L 7.25 -6.046875 C 5.351562 -6.046875 4.40625 -5.421875 4.40625 -4.171875 C 4.40625 -3.566406 4.640625 -3.085938 5.109375 -2.734375 C 5.585938 -2.390625 6.25 -2.21875 7.09375 -2.21875 Z M 7.09375 -2.21875 "/></g></g></g><g fill="#811e2f" fill-opacity="1"><g transform="translate(180.132291, 89.226595)"><g><path d="M 16.140625 -14.078125 L 16.140625 -2.140625 C 16.140625 2.816406 13.609375 5.296875 8.546875 5.296875 C 7.191406 5.296875 5.90625 5.125 4.6875 4.78125 C 3.476562 4.4375 2.476562 3.941406 1.6875 3.296875 L 3.171875 0.8125 C 3.785156 1.320312 4.5625 1.726562 5.5 2.03125 C 6.4375 2.34375 7.390625 2.5 8.359375 2.5 C 9.910156 2.5 11.046875 2.144531 11.765625 1.4375 C 12.484375 0.738281 12.84375 -0.328125 12.84375 -1.765625 L 12.84375 -2.5 C 12.28125 -1.882812 11.59375 -1.421875 10.78125 -1.109375 C 9.976562 -0.796875 9.09375 -0.640625 8.125 -0.640625 C 6.789062 -0.640625 5.582031 -0.921875 4.5 -1.484375 C 3.414062 -2.054688 2.5625 -2.859375 1.9375 -3.890625 C 1.3125 -4.929688 1 -6.125 1 -7.46875 C 1 -8.800781 1.3125 -9.976562 1.9375 -11 C 2.5625 -12.03125 3.414062 -12.828125 4.5 -13.390625 C 5.582031 -13.960938 6.789062 -14.25 8.125 -14.25 C 9.144531 -14.25 10.070312 -14.078125 10.90625 -13.734375 C 11.738281 -13.398438 12.4375 -12.894531 13 -12.21875 L 13 -14.078125 Z M 8.625 -3.421875 C 9.875 -3.421875 10.894531 -3.796875 11.6875 -4.546875 C 12.488281 -5.296875 12.890625 -6.269531 12.890625 -7.46875 C 12.890625 -8.644531 12.488281 -9.601562 11.6875 -10.34375 C 10.894531 -11.082031 9.875 -11.453125 8.625 -11.453125 C 7.351562 -11.453125 6.316406 -11.082031 5.515625 -10.34375 C 4.722656 -9.601562 4.328125 -8.644531 4.328125 -7.46875 C 4.328125 -6.269531 4.722656 -5.296875 5.515625 -4.546875 C 6.316406 -3.796875 7.351562 -3.421875 8.625 -3.421875 Z M 8.625 -3.421875 "/></g></g></g><g fill="#811e2f" fill-opacity="1"><g transform="translate(198.435621, 89.226595)"><g><path d="M 15.40625 -6.96875 C 15.40625 -6.738281 15.382812 -6.410156 15.34375 -5.984375 L 4.296875 -5.984375 C 4.492188 -4.953125 5 -4.128906 5.8125 -3.515625 C 6.632812 -2.910156 7.648438 -2.609375 8.859375 -2.609375 C 10.410156 -2.609375 11.6875 -3.117188 12.6875 -4.140625 L 14.453125 -2.109375 C 13.816406 -1.347656 13.015625 -0.773438 12.046875 -0.390625 C 11.085938 -0.00390625 10 0.1875 8.78125 0.1875 C 7.238281 0.1875 5.875 -0.117188 4.6875 -0.734375 C 3.507812 -1.347656 2.597656 -2.203125 1.953125 -3.296875 C 1.316406 -4.398438 1 -5.648438 1 -7.046875 C 1 -8.410156 1.3125 -9.640625 1.9375 -10.734375 C 2.5625 -11.835938 3.425781 -12.695312 4.53125 -13.3125 C 5.644531 -13.9375 6.894531 -14.25 8.28125 -14.25 C 9.65625 -14.25 10.878906 -13.941406 11.953125 -13.328125 C 13.035156 -12.722656 13.878906 -11.867188 14.484375 -10.765625 C 15.097656 -9.671875 15.40625 -8.40625 15.40625 -6.96875 Z M 8.28125 -11.609375 C 7.226562 -11.609375 6.335938 -11.296875 5.609375 -10.671875 C 4.878906 -10.046875 4.429688 -9.210938 4.265625 -8.171875 L 12.265625 -8.171875 C 12.117188 -9.191406 11.6875 -10.019531 10.96875 -10.65625 C 10.25 -11.289062 9.351562 -11.609375 8.28125 -11.609375 Z M 8.28125 -11.609375 "/></g></g></g><g fill="#811e2f" fill-opacity="1"><g transform="translate(214.84005, 89.226595)"><g/></g></g><g fill="#811e2f" fill-opacity="1"><g transform="translate(222.11918, 89.226595)"><g><path d="M 9.015625 -10.84375 C 10.722656 -10.632812 12.023438 -10.050781 12.921875 -9.09375 C 13.816406 -8.144531 14.265625 -6.957031 14.265625 -5.53125 C 14.265625 -4.46875 13.992188 -3.492188 13.453125 -2.609375 C 12.910156 -1.734375 12.085938 -1.035156 10.984375 -0.515625 C 9.890625 0.00390625 8.550781 0.265625 6.96875 0.265625 C 5.644531 0.265625 4.367188 0.078125 3.140625 -0.296875 C 1.921875 -0.679688 0.882812 -1.207031 0.03125 -1.875 L 1.5 -4.53125 C 2.164062 -3.96875 2.976562 -3.523438 3.9375 -3.203125 C 4.894531 -2.878906 5.882812 -2.71875 6.90625 -2.71875 C 8.125 -2.71875 9.078125 -2.96875 9.765625 -3.46875 C 10.460938 -3.96875 10.8125 -4.648438 10.8125 -5.515625 C 10.8125 -6.378906 10.476562 -7.050781 9.8125 -7.53125 C 9.15625 -8.007812 8.15625 -8.25 6.8125 -8.25 L 5.109375 -8.25 L 5.109375 -10.609375 L 9.3125 -15.59375 L 0.921875 -15.59375 L 0.921875 -18.46875 L 13.5 -18.46875 L 13.5 -16.171875 Z M 9.015625 -10.84375 "/></g></g></g><g fill="#811e2f" fill-opacity="1"><g transform="translate(237.468661, 89.226595)"><g/></g></g><g fill="#811e2f" fill-opacity="1"><g transform="translate(244.736134, 89.226595)"><g><path d="M 2.484375 -18.46875 L 5.90625 -18.46875 L 5.90625 0 L 2.484375 0 Z M 2.484375 -18.46875 "/></g></g></g><g fill="#811e2f" fill-opacity="1"><g transform="translate(253.149339, 89.226595)"><g><path d="M 19.9375 -14.25 C 21.71875 -14.25 23.125 -13.734375 24.15625 -12.703125 C 25.195312 -11.671875 25.71875 -10.128906 25.71875 -8.078125 L 25.71875 0 L 22.421875 0 L 22.421875 -7.65625 C 22.421875 -8.882812 22.144531 -9.8125 21.59375 -10.4375 C 21.050781 -11.0625 20.269531 -11.375 19.25 -11.375 C 18.144531 -11.375 17.257812 -11.003906 16.59375 -10.265625 C 15.925781 -9.535156 15.59375 -8.492188 15.59375 -7.140625 L 15.59375 0 L 12.296875 0 L 12.296875 -7.65625 C 12.296875 -8.882812 12.019531 -9.8125 11.46875 -10.4375 C 10.925781 -11.0625 10.144531 -11.375 9.125 -11.375 C 8 -11.375 7.101562 -11.007812 6.4375 -10.28125 C 5.78125 -9.5625 5.453125 -8.515625 5.453125 -7.140625 L 5.453125 0 L 2.15625 0 L 2.15625 -14.078125 L 5.296875 -14.078125 L 5.296875 -12.296875 C 5.828125 -12.921875 6.488281 -13.398438 7.28125 -13.734375 C 8.070312 -14.078125 8.953125 -14.25 9.921875 -14.25 C 10.972656 -14.25 11.90625 -14.050781 12.71875 -13.65625 C 13.539062 -13.257812 14.191406 -12.671875 14.671875 -11.890625 C 15.242188 -12.628906 15.988281 -13.207031 16.90625 -13.625 C 17.820312 -14.039062 18.832031 -14.25 19.9375 -14.25 Z M 19.9375 -14.25 "/></g></g></g><g fill="#811e2f" fill-opacity="1"><g transform="translate(280.920823, 89.226595)"><g><path d="M 7.546875 -14.25 C 9.617188 -14.25 11.203125 -13.75 12.296875 -12.75 C 13.398438 -11.757812 13.953125 -10.257812 13.953125 -8.25 L 13.953125 0 L 10.84375 0 L 10.84375 -1.71875 C 10.4375 -1.101562 9.859375 -0.628906 9.109375 -0.296875 C 8.359375 0.0234375 7.457031 0.1875 6.40625 0.1875 C 5.351562 0.1875 4.429688 0.0078125 3.640625 -0.34375 C 2.847656 -0.707031 2.234375 -1.210938 1.796875 -1.859375 C 1.367188 -2.503906 1.15625 -3.226562 1.15625 -4.03125 C 1.15625 -5.300781 1.625 -6.316406 2.5625 -7.078125 C 3.507812 -7.847656 4.992188 -8.234375 7.015625 -8.234375 L 10.65625 -8.234375 L 10.65625 -8.4375 C 10.65625 -9.425781 10.359375 -10.179688 9.765625 -10.703125 C 9.179688 -11.234375 8.304688 -11.5 7.140625 -11.5 C 6.347656 -11.5 5.570312 -11.375 4.8125 -11.125 C 4.050781 -10.882812 3.40625 -10.546875 2.875 -10.109375 L 1.578125 -12.5 C 2.316406 -13.0625 3.203125 -13.492188 4.234375 -13.796875 C 5.273438 -14.097656 6.378906 -14.25 7.546875 -14.25 Z M 7.09375 -2.21875 C 7.914062 -2.21875 8.648438 -2.40625 9.296875 -2.78125 C 9.941406 -3.15625 10.394531 -3.695312 10.65625 -4.40625 L 10.65625 -6.046875 L 7.25 -6.046875 C 5.351562 -6.046875 4.40625 -5.421875 4.40625 -4.171875 C 4.40625 -3.566406 4.640625 -3.085938 5.109375 -2.734375 C 5.585938 -2.390625 6.25 -2.21875 7.09375 -2.21875 Z M 7.09375 -2.21875 "/></g></g></g><g fill="#811e2f" fill-opacity="1"><g transform="translate(296.929642, 89.226595)"><g><path d="M 16.140625 -14.078125 L 16.140625 -2.140625 C 16.140625 2.816406 13.609375 5.296875 8.546875 5.296875 C 7.191406 5.296875 5.90625 5.125 4.6875 4.78125 C 3.476562 4.4375 2.476562 3.941406 1.6875 3.296875 L 3.171875 0.8125 C 3.785156 1.320312 4.5625 1.726562 5.5 2.03125 C 6.4375 2.34375 7.390625 2.5 8.359375 2.5 C 9.910156 2.5 11.046875 2.144531 11.765625 1.4375 C 12.484375 0.738281 12.84375 -0.328125 12.84375 -1.765625 L 12.84375 -2.5 C 12.28125 -1.882812 11.59375 -1.421875 10.78125 -1.109375 C 9.976562 -0.796875 9.09375 -0.640625 8.125 -0.640625 C 6.789062 -0.640625 5.582031 -0.921875 4.5 -1.484375 C 3.414062 -2.054688 2.5625 -2.859375 1.9375 -3.890625 C 1.3125 -4.929688 1 -6.125 1 -7.46875 C 1 -8.800781 1.3125 -9.976562 1.9375 -11 C 2.5625 -12.03125 3.414062 -12.828125 4.5 -13.390625 C 5.582031 -13.960938 6.789062 -14.25 8.125 -14.25 C 9.144531 -14.25 10.070312 -14.078125 10.90625 -13.734375 C 11.738281 -13.398438 12.4375 -12.894531 13 -12.21875 L 13 -14.078125 Z M 8.625 -3.421875 C 9.875 -3.421875 10.894531 -3.796875 11.6875 -4.546875 C 12.488281 -5.296875 12.890625 -6.269531 12.890625 -7.46875 C 12.890625 -8.644531 12.488281 -9.601562 11.6875 -10.34375 C 10.894531 -11.082031 9.875 -11.453125 8.625 -11.453125 C 7.351562 -11.453125 6.316406 -11.082031 5.515625 -10.34375 C 4.722656 -9.601562 4.328125 -8.644531 4.328125 -7.46875 C 4.328125 -6.269531 4.722656 -5.296875 5.515625 -4.546875 C 6.316406 -3.796875 7.351562 -3.421875 8.625 -3.421875 Z M 8.625 -3.421875 "/></g></g></g><g fill="#811e2f" fill-opacity="1"><g transform="translate(315.232971, 89.226595)"><g><path d="M 15.40625 -6.96875 C 15.40625 -6.738281 15.382812 -6.410156 15.34375 -5.984375 L 4.296875 -5.984375 C 4.492188 -4.953125 5 -4.128906 5.8125 -3.515625 C 6.632812 -2.910156 7.648438 -2.609375 8.859375 -2.609375 C 10.410156 -2.609375 11.6875 -3.117188 12.6875 -4.140625 L 14.453125 -2.109375 C 13.816406 -1.347656 13.015625 -0.773438 12.046875 -0.390625 C 11.085938 -0.00390625 10 0.1875 8.78125 0.1875 C 7.238281 0.1875 5.875 -0.117188 4.6875 -0.734375 C 3.507812 -1.347656 2.597656 -2.203125 1.953125 -3.296875 C 1.316406 -4.398438 1 -5.648438 1 -7.046875 C 1 -8.410156 1.3125 -9.640625 1.9375 -10.734375 C 2.5625 -11.835938 3.425781 -12.695312 4.53125 -13.3125 C 5.644531 -13.9375 6.894531 -14.25 8.28125 -14.25 C 9.65625 -14.25 10.878906 -13.941406 11.953125 -13.328125 C 13.035156 -12.722656 13.878906 -11.867188 14.484375 -10.765625 C 15.097656 -9.671875 15.40625 -8.40625 15.40625 -6.96875 Z M 8.28125 -11.609375 C 7.226562 -11.609375 6.335938 -11.296875 5.609375 -10.671875 C 4.878906 -10.046875 4.429688 -9.210938 4.265625 -8.171875 L 12.265625 -8.171875 C 12.117188 -9.191406 11.6875 -10.019531 10.96875 -10.65625 C 10.25 -11.289062 9.351562 -11.609375 8.28125 -11.609375 Z M 8.28125 -11.609375 "/></g></g></g><g fill="#811e2f" fill-opacity="1"><g transform="translate(331.6374, 89.226595)"><g><path d="M 6.515625 0.1875 C 5.367188 0.1875 4.25 0.0351562 3.15625 -0.265625 C 2.070312 -0.566406 1.203125 -0.941406 0.546875 -1.390625 L 1.8125 -3.90625 C 2.445312 -3.476562 3.207031 -3.132812 4.09375 -2.875 C 4.988281 -2.625 5.863281 -2.5 6.71875 -2.5 C 8.6875 -2.5 9.671875 -3.019531 9.671875 -4.0625 C 9.671875 -4.550781 9.421875 -4.890625 8.921875 -5.078125 C 8.421875 -5.273438 7.617188 -5.460938 6.515625 -5.640625 C 5.359375 -5.816406 4.410156 -6.019531 3.671875 -6.25 C 2.941406 -6.476562 2.304688 -6.878906 1.765625 -7.453125 C 1.234375 -8.023438 0.96875 -8.820312 0.96875 -9.84375 C 0.96875 -11.175781 1.523438 -12.242188 2.640625 -13.046875 C 3.765625 -13.847656 5.273438 -14.25 7.171875 -14.25 C 8.140625 -14.25 9.109375 -14.132812 10.078125 -13.90625 C 11.046875 -13.6875 11.835938 -13.394531 12.453125 -13.03125 L 11.1875 -10.53125 C 9.988281 -11.226562 8.640625 -11.578125 7.140625 -11.578125 C 6.179688 -11.578125 5.445312 -11.429688 4.9375 -11.140625 C 4.4375 -10.847656 4.1875 -10.46875 4.1875 -10 C 4.1875 -9.46875 4.453125 -9.09375 4.984375 -8.875 C 5.523438 -8.65625 6.359375 -8.445312 7.484375 -8.25 C 8.609375 -8.070312 9.53125 -7.867188 10.25 -7.640625 C 10.976562 -7.421875 11.597656 -7.035156 12.109375 -6.484375 C 12.628906 -5.941406 12.890625 -5.171875 12.890625 -4.171875 C 12.890625 -2.847656 12.316406 -1.789062 11.171875 -1 C 10.035156 -0.207031 8.484375 0.1875 6.515625 0.1875 Z M 6.515625 0.1875 "/></g></g></g><g clip-path="url(#f03917ba40)"><g clip-path="url(#d147d6f125)"><g clip-path="url(#f51a237720)"><path fill="url(#ad5413250c)" d="M 39.355469 107.953125 L 94.105469 107.953125 L 94.105469 53.203125 L 39.355469 53.203125 Z M 39.355469 107.953125 " fill-rule="nonzero"/></g></g></g></svg>