<svg xmlns="http://www.w3.org/2000/svg" xmlns:xlink="http://www.w3.org/1999/xlink" width="500" zoomAndPan="magnify" viewBox="0 0 375 149.999998" height="200" preserveAspectRatio="xMidYMid meet" version="1.0"><defs><g/><clipPath id="972dafa030"><path d="M 7.5 25.734375 L 367.871094 25.734375 L 367.871094 135 L 7.5 135 Z M 7.5 25.734375 " clip-rule="nonzero"/></clipPath><clipPath id="42340e1133"><path d="M 33 25.734375 L 342 25.734375 C 356.082031 25.734375 367.5 37.152344 367.5 51.234375 L 367.5 109.5 C 367.5 123.582031 356.082031 135 342 135 L 33 135 C 18.917969 135 7.5 123.582031 7.5 109.5 L 7.5 51.234375 C 7.5 37.152344 18.917969 25.734375 33 25.734375 " clip-rule="nonzero"/></clipPath><clipPath id="c50dfd5b4b"><path d="M 35.9375 52.980469 L 90.6875 52.980469 L 90.6875 107.730469 L 35.9375 107.730469 Z M 35.9375 52.980469 " clip-rule="nonzero"/></clipPath><clipPath id="f50f4da60d"><path d="M 65.960938 54.746094 L 88.917969 54.746094 L 88.917969 105.964844 L 65.960938 105.964844 Z M 65.078125 107.730469 L 89.800781 107.730469 C 90.289062 107.730469 90.6875 107.332031 90.6875 106.847656 L 90.6875 53.863281 C 90.6875 53.375 90.289062 52.980469 89.800781 52.980469 L 65.078125 52.980469 C 64.589844 52.980469 64.195312 53.375 64.195312 53.863281 L 64.195312 106.847656 C 64.195312 107.332031 64.589844 107.730469 65.078125 107.730469 Z M 37.703125 54.746094 L 60.660156 54.746094 L 60.660156 105.964844 L 37.703125 105.964844 Z M 36.820312 107.730469 L 61.542969 107.730469 C 62.03125 107.730469 62.425781 107.332031 62.425781 106.847656 L 62.425781 53.863281 C 62.425781 53.375 62.03125 52.980469 61.542969 52.980469 L 36.820312 52.980469 C 36.332031 52.980469 35.9375 53.375 35.9375 53.863281 L 35.9375 106.847656 C 35.9375 107.332031 36.332031 107.730469 36.820312 107.730469 Z M 36.820312 107.730469 " clip-rule="nonzero"/></clipPath><clipPath id="51373cd5a3"><path d="M 65.960938 54.746094 L 88.917969 54.746094 L 88.917969 105.964844 L 65.960938 105.964844 Z M 65.078125 107.730469 L 89.800781 107.730469 C 90.289062 107.730469 90.6875 107.332031 90.6875 106.847656 L 90.6875 53.863281 C 90.6875 53.375 90.289062 52.980469 89.800781 52.980469 L 65.078125 52.980469 C 64.589844 52.980469 64.195312 53.375 64.195312 53.863281 L 64.195312 106.847656 C 64.195312 107.332031 64.589844 107.730469 65.078125 107.730469 Z M 37.703125 54.746094 L 60.660156 54.746094 L 60.660156 105.964844 L 37.703125 105.964844 Z M 36.820312 107.730469 L 61.542969 107.730469 C 62.03125 107.730469 62.425781 107.332031 62.425781 106.847656 L 62.425781 53.863281 C 62.425781 53.375 62.03125 52.980469 61.542969 52.980469 L 36.820312 52.980469 C 36.332031 52.980469 35.9375 53.375 35.9375 53.863281 L 35.9375 106.847656 C 35.9375 107.332031 36.332031 107.730469 36.820312 107.730469 " clip-rule="nonzero"/></clipPath><linearGradient x1="0.0000000137484" gradientTransform="matrix(0, -54.749995, 54.749995, 0, 63.310679, 107.72945)" y1="0" x2="1" gradientUnits="userSpaceOnUse" y2="0" id="1a901504c2"><stop stop-opacity="1" stop-color="rgb(32.499695%, 77.999878%, 92.199707%)" offset="0"/><stop stop-opacity="1" stop-color="rgb(32.499695%, 77.999878%, 92.355347%)" offset="0.03125"/><stop stop-opacity="1" stop-color="rgb(32.501221%, 77.999878%, 92.704773%)" offset="0.0390625"/><stop stop-opacity="1" stop-color="rgb(32.698059%, 77.999878%, 92.89856%)" offset="0.046875"/><stop stop-opacity="1" stop-color="rgb(32.896423%, 77.807617%, 92.89856%)" offset="0.0546875"/><stop stop-opacity="1" stop-color="rgb(32.711792%, 77.46582%, 92.710876%)" offset="0.0625"/><stop stop-opacity="1" stop-color="rgb(32.519531%, 77.301025%, 92.520142%)" offset="0.0703125"/><stop stop-opacity="1" stop-color="rgb(32.713318%, 77.084351%, 92.706299%)" offset="0.0742188"/><stop stop-opacity="1" stop-color="rgb(32.911682%, 76.885986%, 92.89856%)" offset="0.078125"/><stop stop-opacity="1" stop-color="rgb(33.105469%, 76.6922%, 92.89856%)" offset="0.0859375"/><stop stop-opacity="1" stop-color="rgb(33.299255%, 76.112366%, 92.89856%)" offset="0.0898438"/><stop stop-opacity="1" stop-color="rgb(33.299255%, 75.724792%, 92.89856%)" offset="0.09375"/><stop stop-opacity="1" stop-color="rgb(33.299255%, 75.71106%, 92.89856%)" offset="0.101562"/><stop stop-opacity="1" stop-color="rgb(33.317566%, 75.480652%, 92.89856%)" offset="0.105469"/><stop stop-opacity="1" stop-color="rgb(33.337402%, 75.262451%, 92.89856%)" offset="0.109375"/><stop stop-opacity="1" stop-color="rgb(33.517456%, 75.071716%, 92.89856%)" offset="0.117188"/><stop stop-opacity="1" stop-color="rgb(33.898926%, 74.490356%, 92.89856%)" offset="0.121094"/><stop stop-opacity="1" stop-color="rgb(34.098816%, 74.099731%, 92.89856%)" offset="0.125"/><stop stop-opacity="1" stop-color="rgb(34.098816%, 73.908997%, 92.89856%)" offset="0.132813"/><stop stop-opacity="1" stop-color="rgb(34.098816%, 73.327637%, 92.698669%)" offset="0.136719"/><stop stop-opacity="1" stop-color="rgb(34.098816%, 72.937012%, 92.498779%)" offset="0.140625"/><stop stop-opacity="1" stop-color="rgb(34.120178%, 72.546387%, 92.326355%)" offset="0.144531"/><stop stop-opacity="1" stop-color="rgb(34.143066%, 72.155762%, 92.155457%)" offset="0.148438"/><stop stop-opacity="1" stop-color="rgb(34.333801%, 71.965027%, 91.964722%)" offset="0.15625"/><stop stop-opacity="1" stop-color="rgb(34.912109%, 71.383667%, 91.386414%)" offset="0.160156"/><stop stop-opacity="1" stop-color="rgb(35.299683%, 70.993042%, 90.99884%)" offset="0.164063"/><stop stop-opacity="1" stop-color="rgb(35.493469%, 70.796204%, 90.99884%)" offset="0.167969"/><stop stop-opacity="1" stop-color="rgb(35.687256%, 70.599365%, 90.99884%)" offset="0.171875"/><stop stop-opacity="1" stop-color="rgb(35.693359%, 70.214844%, 90.79895%)" offset="0.175781"/><stop stop-opacity="1" stop-color="rgb(35.699463%, 69.830322%, 90.59906%)" offset="0.179688"/><stop stop-opacity="1" stop-color="rgb(35.899353%, 69.613647%, 90.39917%)" offset="0.183594"/><stop stop-opacity="1" stop-color="rgb(36.099243%, 69.398499%, 90.19928%)" offset="0.1875"/><stop stop-opacity="1" stop-color="rgb(36.314392%, 68.983459%, 89.982605%)" offset="0.191406"/><stop stop-opacity="1" stop-color="rgb(36.531067%, 68.56842%, 89.767456%)" offset="0.195313"/><stop stop-opacity="1" stop-color="rgb(36.920166%, 68.183899%, 89.576721%)" offset="0.199219"/><stop stop-opacity="1" stop-color="rgb(37.309265%, 67.799377%, 89.385986%)" offset="0.203125"/><stop stop-opacity="1" stop-color="rgb(37.651062%, 67.651367%, 89.1922%)" offset="0.207031"/><stop stop-opacity="1" stop-color="rgb(37.992859%, 67.503357%, 88.999939%)" offset="0.210938"/><stop stop-opacity="1" stop-color="rgb(38.183594%, 67.112732%, 88.612366%)" offset="0.214844"/><stop stop-opacity="1" stop-color="rgb(38.374329%, 66.723633%, 88.224792%)" offset="0.21875"/><stop stop-opacity="1" stop-color="rgb(38.586426%, 66.333008%, 88.034058%)" offset="0.222656"/><stop stop-opacity="1" stop-color="rgb(38.798523%, 65.942383%, 87.843323%)" offset="0.226563"/><stop stop-opacity="1" stop-color="rgb(39.016724%, 65.519714%, 87.670898%)" offset="0.230469"/><stop stop-opacity="1" stop-color="rgb(39.23645%, 65.098572%, 87.5%)" offset="0.234375"/><stop stop-opacity="1" stop-color="rgb(39.627075%, 64.889526%, 87.289429%)" offset="0.238281"/><stop stop-opacity="1" stop-color="rgb(40.0177%, 64.680481%, 87.080383%)" offset="0.242188"/><stop stop-opacity="1" stop-color="rgb(40.208435%, 64.289856%, 86.889648%)" offset="0.246094"/><stop stop-opacity="1" stop-color="rgb(40.39917%, 63.899231%, 86.698914%)" offset="0.25"/><stop stop-opacity="1" stop-color="rgb(40.59906%, 63.508606%, 86.499023%)" offset="0.253906"/><stop stop-opacity="1" stop-color="rgb(40.79895%, 63.117981%, 86.299133%)" offset="0.257812"/><stop stop-opacity="1" stop-color="rgb(41.38031%, 62.771606%, 86.099243%)" offset="0.261719"/><stop stop-opacity="1" stop-color="rgb(41.96167%, 62.426758%, 85.899353%)" offset="0.265625"/><stop stop-opacity="1" stop-color="rgb(42.196655%, 62.190247%, 85.676575%)" offset="0.269531"/><stop stop-opacity="1" stop-color="rgb(42.431641%, 61.955261%, 85.455322%)" offset="0.273438"/><stop stop-opacity="1" stop-color="rgb(42.778015%, 61.564636%, 85.076904%)" offset="0.277344"/><stop stop-opacity="1" stop-color="rgb(43.12439%, 61.174011%, 84.698486%)" offset="0.28125"/><stop stop-opacity="1" stop-color="rgb(43.515015%, 60.783386%, 84.495544%)" offset="0.285156"/><stop stop-opacity="1" stop-color="rgb(43.90564%, 60.392761%, 84.292603%)" offset="0.289062"/><stop stop-opacity="1" stop-color="rgb(44.296265%, 60.002136%, 84.095764%)" offset="0.292969"/><stop stop-opacity="1" stop-color="rgb(44.68689%, 59.611511%, 83.898926%)" offset="0.296875"/><stop stop-opacity="1" stop-color="rgb(45.077515%, 59.220886%, 83.699036%)" offset="0.300781"/><stop stop-opacity="1" stop-color="rgb(45.46814%, 58.830261%, 83.499146%)" offset="0.304688"/><stop stop-opacity="1" stop-color="rgb(45.858765%, 58.439636%, 83.123779%)" offset="0.308594"/><stop stop-opacity="1" stop-color="rgb(46.24939%, 58.049011%, 82.749939%)" offset="0.3125"/><stop stop-opacity="1" stop-color="rgb(46.885681%, 57.458496%, 82.559204%)" offset="0.316406"/><stop stop-opacity="1" stop-color="rgb(47.521973%, 56.867981%, 82.368469%)" offset="0.320313"/><stop stop-opacity="1" stop-color="rgb(47.866821%, 56.477356%, 81.983948%)" offset="0.324219"/><stop stop-opacity="1" stop-color="rgb(48.21167%, 56.086731%, 81.599426%)" offset="0.328125"/><stop stop-opacity="1" stop-color="rgb(48.602295%, 55.696106%, 81.402588%)" offset="0.332031"/><stop stop-opacity="1" stop-color="rgb(48.99292%, 55.305481%, 81.20575%)" offset="0.335938"/><stop stop-opacity="1" stop-color="rgb(49.383545%, 54.914856%, 81.015015%)" offset="0.339844"/><stop stop-opacity="1" stop-color="rgb(49.77417%, 54.524231%, 80.82428%)" offset="0.34375"/><stop stop-opacity="1" stop-color="rgb(50.164795%, 54.133606%, 80.610657%)" offset="0.347656"/><stop stop-opacity="1" stop-color="rgb(50.55542%, 53.742981%, 80.39856%)" offset="0.351563"/><stop stop-opacity="1" stop-color="rgb(50.996399%, 53.302002%, 79.998779%)" offset="0.355469"/><stop stop-opacity="1" stop-color="rgb(51.437378%, 52.861023%, 79.598999%)" offset="0.359375"/><stop stop-opacity="1" stop-color="rgb(51.626587%, 52.511597%, 79.399109%)" offset="0.363281"/><stop stop-opacity="1" stop-color="rgb(51.817322%, 52.16217%, 79.199219%)" offset="0.367188"/><stop stop-opacity="1" stop-color="rgb(52.157593%, 51.580811%, 78.999329%)" offset="0.371094"/><stop stop-opacity="1" stop-color="rgb(52.49939%, 50.999451%, 78.799438%)" offset="0.375"/><stop stop-opacity="1" stop-color="rgb(52.890015%, 50.608826%, 78.599548%)" offset="0.378906"/><stop stop-opacity="1" stop-color="rgb(53.28064%, 50.218201%, 78.399658%)" offset="0.382813"/><stop stop-opacity="1" stop-color="rgb(53.671265%, 49.827576%, 78.199768%)" offset="0.386719"/><stop stop-opacity="1" stop-color="rgb(54.06189%, 49.436951%, 77.999878%)" offset="0.390625"/><stop stop-opacity="1" stop-color="rgb(54.47998%, 48.995972%, 77.648926%)" offset="0.394531"/><stop stop-opacity="1" stop-color="rgb(54.899597%, 48.554993%, 77.2995%)" offset="0.398438"/><stop stop-opacity="1" stop-color="rgb(55.111694%, 48.167419%, 77.099609%)" offset="0.402344"/><stop stop-opacity="1" stop-color="rgb(55.323792%, 47.779846%, 76.899719%)" offset="0.40625"/><stop stop-opacity="1" stop-color="rgb(55.714417%, 47.436523%, 76.699829%)" offset="0.410156"/><stop stop-opacity="1" stop-color="rgb(56.105042%, 47.093201%, 76.499939%)" offset="0.414062"/><stop stop-opacity="1" stop-color="rgb(56.495667%, 46.702576%, 76.306152%)" offset="0.417969"/><stop stop-opacity="1" stop-color="rgb(56.886292%, 46.311951%, 76.112366%)" offset="0.421875"/><stop stop-opacity="1" stop-color="rgb(57.092285%, 45.921326%, 75.921631%)" offset="0.425781"/><stop stop-opacity="1" stop-color="rgb(57.299805%, 45.530701%, 75.730896%)" offset="0.429688"/><stop stop-opacity="1" stop-color="rgb(57.624817%, 45.339966%, 75.540161%)" offset="0.433594"/><stop stop-opacity="1" stop-color="rgb(57.949829%, 45.149231%, 75.349426%)" offset="0.4375"/><stop stop-opacity="1" stop-color="rgb(58.389282%, 44.708252%, 75.123596%)" offset="0.441406"/><stop stop-opacity="1" stop-color="rgb(58.830261%, 44.267273%, 74.899292%)" offset="0.445312"/><stop stop-opacity="1" stop-color="rgb(59.220886%, 43.876648%, 74.699402%)" offset="0.449219"/><stop stop-opacity="1" stop-color="rgb(59.611511%, 43.486023%, 74.499512%)" offset="0.453125"/><stop stop-opacity="1" stop-color="rgb(60.002136%, 43.095398%, 74.302673%)" offset="0.457031"/><stop stop-opacity="1" stop-color="rgb(60.392761%, 42.704773%, 74.105835%)" offset="0.460938"/><stop stop-opacity="1" stop-color="rgb(60.983276%, 42.364502%, 73.9151%)" offset="0.464844"/><stop stop-opacity="1" stop-color="rgb(61.573792%, 42.024231%, 73.724365%)" offset="0.46875"/><stop stop-opacity="1" stop-color="rgb(61.964417%, 41.633606%, 73.53363%)" offset="0.472656"/><stop stop-opacity="1" stop-color="rgb(62.355042%, 41.242981%, 73.342896%)" offset="0.476562"/><stop stop-opacity="1" stop-color="rgb(62.763977%, 40.802002%, 73.120117%)" offset="0.480469"/><stop stop-opacity="1" stop-color="rgb(63.174438%, 40.361023%, 72.898865%)" offset="0.484375"/><stop stop-opacity="1" stop-color="rgb(63.745117%, 39.970398%, 72.698975%)" offset="0.488281"/><stop stop-opacity="1" stop-color="rgb(64.317322%, 39.579773%, 72.499084%)" offset="0.492188"/><stop stop-opacity="1" stop-color="rgb(64.707947%, 39.189148%, 72.348022%)" offset="0.496094"/><stop stop-opacity="1" stop-color="rgb(65.098572%, 38.798523%, 72.198486%)" offset="0.5"/><stop stop-opacity="1" stop-color="rgb(65.489197%, 38.607788%, 72.198486%)" offset="0.503906"/><stop stop-opacity="1" stop-color="rgb(65.879822%, 38.418579%, 72.198486%)" offset="0.507812"/><stop stop-opacity="1" stop-color="rgb(66.088867%, 38.227844%, 71.998596%)" offset="0.511719"/><stop stop-opacity="1" stop-color="rgb(66.299438%, 38.037109%, 71.798706%)" offset="0.515625"/><stop stop-opacity="1" stop-color="rgb(66.520691%, 37.995911%, 71.798706%)" offset="0.519531"/><stop stop-opacity="1" stop-color="rgb(66.743469%, 37.956238%, 71.798706%)" offset="0.523438"/><stop stop-opacity="1" stop-color="rgb(67.131042%, 37.768555%, 71.598816%)" offset="0.527344"/><stop stop-opacity="1" stop-color="rgb(67.518616%, 37.580872%, 71.398926%)" offset="0.53125"/><stop stop-opacity="1" stop-color="rgb(67.861938%, 37.435913%, 71.398926%)" offset="0.535156"/><stop stop-opacity="1" stop-color="rgb(68.205261%, 37.29248%, 71.398926%)" offset="0.539062"/><stop stop-opacity="1" stop-color="rgb(68.4021%, 36.901855%, 71.205139%)" offset="0.542969"/><stop stop-opacity="1" stop-color="rgb(68.598938%, 36.51123%, 71.011353%)" offset="0.546875"/><stop stop-opacity="1" stop-color="rgb(68.983459%, 36.320496%, 71.005249%)" offset="0.550781"/><stop stop-opacity="1" stop-color="rgb(69.367981%, 36.129761%, 70.999146%)" offset="0.554688"/><stop stop-opacity="1" stop-color="rgb(69.558716%, 36.114502%, 70.823669%)" offset="0.5625"/><stop stop-opacity="1" stop-color="rgb(69.989014%, 35.882568%, 70.623779%)" offset="0.566406"/><stop stop-opacity="1" stop-color="rgb(70.230103%, 35.667419%, 70.599365%)" offset="0.570313"/><stop stop-opacity="1" stop-color="rgb(70.620728%, 35.282898%, 70.399475%)" offset="0.574219"/><stop stop-opacity="1" stop-color="rgb(71.011353%, 34.899902%, 70.199585%)" offset="0.578125"/><stop stop-opacity="1" stop-color="rgb(71.401978%, 34.703064%, 70.199585%)" offset="0.582031"/><stop stop-opacity="1" stop-color="rgb(71.792603%, 34.506226%, 70.199585%)" offset="0.585938"/><stop stop-opacity="1" stop-color="rgb(71.995544%, 34.115601%, 69.999695%)" offset="0.589844"/><stop stop-opacity="1" stop-color="rgb(72.198486%, 33.724976%, 69.799805%)" offset="0.59375"/><stop stop-opacity="1" stop-color="rgb(72.72644%, 33.534241%, 69.799805%)" offset="0.597656"/><stop stop-opacity="1" stop-color="rgb(73.25592%, 33.343506%, 69.799805%)" offset="0.601562"/><stop stop-opacity="1" stop-color="rgb(73.495483%, 33.302307%, 69.598389%)" offset="0.605469"/><stop stop-opacity="1" stop-color="rgb(73.736572%, 33.261108%, 69.398499%)" offset="0.609375"/><stop stop-opacity="1" stop-color="rgb(74.127197%, 33.070374%, 69.389343%)" offset="0.613281"/><stop stop-opacity="1" stop-color="rgb(74.517822%, 32.881165%, 69.380188%)" offset="0.617188"/><stop stop-opacity="1" stop-color="rgb(74.908447%, 32.539368%, 69.189453%)" offset="0.621094"/><stop stop-opacity="1" stop-color="rgb(75.299072%, 32.199097%, 68.998718%)" offset="0.625"/><stop stop-opacity="1" stop-color="rgb(75.889587%, 31.999207%, 68.807983%)" offset="0.628906"/><stop stop-opacity="1" stop-color="rgb(76.480103%, 31.799316%, 68.617249%)" offset="0.632812"/><stop stop-opacity="1" stop-color="rgb(76.670837%, 31.599426%, 68.608093%)" offset="0.636719"/><stop stop-opacity="1" stop-color="rgb(76.861572%, 31.399536%, 68.598938%)" offset="0.640625"/><stop stop-opacity="1" stop-color="rgb(77.096558%, 30.999756%, 68.399048%)" offset="0.644531"/><stop stop-opacity="1" stop-color="rgb(77.331543%, 30.599976%, 68.199158%)" offset="0.648438"/><stop stop-opacity="1" stop-color="rgb(77.877808%, 30.39856%, 68.199158%)" offset="0.652344"/><stop stop-opacity="1" stop-color="rgb(78.424072%, 30.198669%, 68.199158%)" offset="0.65625"/><stop stop-opacity="1" stop-color="rgb(78.814697%, 29.995728%, 67.999268%)" offset="0.660156"/><stop stop-opacity="1" stop-color="rgb(79.205322%, 29.792786%, 67.799377%)" offset="0.664062"/><stop stop-opacity="1" stop-color="rgb(79.595947%, 29.402161%, 67.799377%)" offset="0.667969"/><stop stop-opacity="1" stop-color="rgb(79.986572%, 29.011536%, 67.799377%)" offset="0.671875"/><stop stop-opacity="1" stop-color="rgb(80.377197%, 28.820801%, 67.648315%)" offset="0.675781"/><stop stop-opacity="1" stop-color="rgb(80.767822%, 28.630066%, 67.498779%)" offset="0.679688"/><stop stop-opacity="1" stop-color="rgb(81.158447%, 28.439331%, 67.498779%)" offset="0.683594"/><stop stop-opacity="1" stop-color="rgb(81.549072%, 28.248596%, 67.498779%)" offset="0.6875"/><stop stop-opacity="1" stop-color="rgb(81.985474%, 27.87323%, 67.298889%)" offset="0.691406"/><stop stop-opacity="1" stop-color="rgb(82.423401%, 27.49939%, 67.098999%)" offset="0.695312"/><stop stop-opacity="1" stop-color="rgb(82.766724%, 27.293396%, 66.899109%)" offset="0.699219"/><stop stop-opacity="1" stop-color="rgb(83.111572%, 27.087402%, 66.699219%)" offset="0.703125"/><stop stop-opacity="1" stop-color="rgb(83.502197%, 26.696777%, 66.699219%)" offset="0.707031"/><stop stop-opacity="1" stop-color="rgb(83.892822%, 26.306152%, 66.699219%)" offset="0.710938"/><stop stop-opacity="1" stop-color="rgb(84.483337%, 26.115417%, 66.499329%)" offset="0.714844"/><stop stop-opacity="1" stop-color="rgb(85.073853%, 25.924683%, 66.299438%)" offset="0.71875"/><stop stop-opacity="1" stop-color="rgb(85.464478%, 25.534058%, 66.120911%)" offset="0.722656"/><stop stop-opacity="1" stop-color="rgb(85.855103%, 25.143433%, 65.942383%)" offset="0.726562"/><stop stop-opacity="1" stop-color="rgb(86.276245%, 24.902344%, 65.901184%)" offset="0.730469"/><stop stop-opacity="1" stop-color="rgb(86.698914%, 24.661255%, 65.861511%)" offset="0.734375"/><stop stop-opacity="1" stop-color="rgb(86.898804%, 24.479675%, 65.679932%)" offset="0.738281"/><stop stop-opacity="1" stop-color="rgb(87.098694%, 24.299622%, 65.499878%)" offset="0.742188"/><stop stop-opacity="1" stop-color="rgb(87.298584%, 24.099731%, 65.298462%)" offset="0.746094"/><stop stop-opacity="1" stop-color="rgb(87.498474%, 23.899841%, 65.098572%)" offset="0.75"/><stop stop-opacity="1" stop-color="rgb(87.64801%, 23.899841%, 64.707947%)" offset="0.753906"/><stop stop-opacity="1" stop-color="rgb(87.799072%, 23.899841%, 64.317322%)" offset="0.757812"/><stop stop-opacity="1" stop-color="rgb(87.980652%, 23.718262%, 63.926697%)" offset="0.761719"/><stop stop-opacity="1" stop-color="rgb(88.162231%, 23.536682%, 63.536072%)" offset="0.765625"/><stop stop-opacity="1" stop-color="rgb(88.380432%, 23.495483%, 62.945557%)" offset="0.769531"/><stop stop-opacity="1" stop-color="rgb(88.598633%, 23.455811%, 62.355042%)" offset="0.773438"/><stop stop-opacity="1" stop-color="rgb(88.61084%, 23.277283%, 61.952209%)" offset="0.777344"/><stop stop-opacity="1" stop-color="rgb(88.624573%, 23.098755%, 61.549377%)" offset="0.78125"/><stop stop-opacity="1" stop-color="rgb(88.812256%, 22.898865%, 60.971069%)" offset="0.785156"/><stop stop-opacity="1" stop-color="rgb(88.999939%, 22.698975%, 60.392761%)" offset="0.789062"/><stop stop-opacity="1" stop-color="rgb(89.1922%, 22.698975%, 59.80835%)" offset="0.792969"/><stop stop-opacity="1" stop-color="rgb(89.385986%, 22.698975%, 59.223938%)" offset="0.796875"/><stop stop-opacity="1" stop-color="rgb(89.576721%, 22.549438%, 58.827209%)" offset="0.800781"/><stop stop-opacity="1" stop-color="rgb(89.767456%, 22.399902%, 58.430481%)" offset="0.804688"/><stop stop-opacity="1" stop-color="rgb(89.782715%, 22.399902%, 57.88269%)" offset="0.808594"/><stop stop-opacity="1" stop-color="rgb(89.7995%, 22.399902%, 57.336426%)" offset="0.8125"/><stop stop-opacity="1" stop-color="rgb(89.99939%, 22.198486%, 56.70166%)" offset="0.816406"/><stop stop-opacity="1" stop-color="rgb(90.19928%, 21.998596%, 56.06842%)" offset="0.820312"/><stop stop-opacity="1" stop-color="rgb(90.39917%, 21.998596%, 55.477905%)" offset="0.824219"/><stop stop-opacity="1" stop-color="rgb(90.59906%, 21.998596%, 54.88739%)" offset="0.828125"/><stop stop-opacity="1" stop-color="rgb(90.59906%, 22.195435%, 54.496765%)" offset="0.832031"/><stop stop-opacity="1" stop-color="rgb(90.59906%, 22.392273%, 54.10614%)" offset="0.835938"/><stop stop-opacity="1" stop-color="rgb(90.786743%, 22.395325%, 53.514099%)" offset="0.839844"/><stop stop-opacity="1" stop-color="rgb(90.974426%, 22.399902%, 52.923584%)" offset="0.84375"/><stop stop-opacity="1" stop-color="rgb(90.986633%, 22.198486%, 52.383423%)" offset="0.847656"/><stop stop-opacity="1" stop-color="rgb(90.99884%, 21.998596%, 51.843262%)" offset="0.851562"/><stop stop-opacity="1" stop-color="rgb(91.017151%, 21.998596%, 51.383972%)" offset="0.855469"/><stop stop-opacity="1" stop-color="rgb(91.036987%, 21.998596%, 50.924683%)" offset="0.859375"/><stop stop-opacity="1" stop-color="rgb(91.217041%, 21.989441%, 50.343323%)" offset="0.863281"/><stop stop-opacity="1" stop-color="rgb(91.398621%, 21.980286%, 49.761963%)" offset="0.867188"/><stop stop-opacity="1" stop-color="rgb(91.598511%, 21.789551%, 49.180603%)" offset="0.871094"/><stop stop-opacity="1" stop-color="rgb(91.799927%, 21.598816%, 48.599243%)" offset="0.875"/><stop stop-opacity="1" stop-color="rgb(91.989136%, 21.408081%, 48.05603%)" offset="0.878906"/><stop stop-opacity="1" stop-color="rgb(92.179871%, 21.217346%, 47.512817%)" offset="0.882812"/><stop stop-opacity="1" stop-color="rgb(92.324829%, 21.208191%, 46.943665%)" offset="0.886719"/><stop stop-opacity="1" stop-color="rgb(92.471313%, 21.199036%, 46.374512%)" offset="0.890625"/><stop stop-opacity="1" stop-color="rgb(92.684937%, 21.199036%, 45.915222%)" offset="0.894531"/><stop stop-opacity="1" stop-color="rgb(92.89856%, 21.199036%, 45.455933%)" offset="0.898438"/><stop stop-opacity="1" stop-color="rgb(92.910767%, 21.199036%, 44.865417%)" offset="0.902344"/><stop stop-opacity="1" stop-color="rgb(92.9245%, 21.199036%, 44.274902%)" offset="0.90625"/><stop stop-opacity="1" stop-color="rgb(93.115234%, 21.199036%, 43.682861%)" offset="0.910156"/><stop stop-opacity="1" stop-color="rgb(93.305969%, 21.199036%, 43.092346%)" offset="0.914062"/><stop stop-opacity="1" stop-color="rgb(93.502808%, 21.005249%, 42.750549%)" offset="0.917969"/><stop stop-opacity="1" stop-color="rgb(93.699646%, 20.811462%, 42.408752%)" offset="0.921875"/><stop stop-opacity="1" stop-color="rgb(93.882751%, 20.805359%, 41.819763%)" offset="0.925781"/><stop stop-opacity="1" stop-color="rgb(94.067383%, 20.799255%, 41.230774%)" offset="0.929688"/><stop stop-opacity="1" stop-color="rgb(94.082642%, 20.799255%, 40.840149%)" offset="0.933594"/><stop stop-opacity="1" stop-color="rgb(94.099426%, 20.799255%, 40.449524%)" offset="0.9375"/><stop stop-opacity="1" stop-color="rgb(94.099426%, 20.799255%, 39.808655%)" offset="0.941406"/><stop stop-opacity="1" stop-color="rgb(94.099426%, 20.799255%, 39.167786%)" offset="0.945312"/><stop stop-opacity="1" stop-color="rgb(94.099426%, 20.799255%, 38.777161%)" offset="0.949219"/><stop stop-opacity="1" stop-color="rgb(94.099426%, 20.799255%, 38.386536%)" offset="0.953125"/><stop stop-opacity="1" stop-color="rgb(94.099426%, 20.602417%, 37.8479%)" offset="0.957031"/><stop stop-opacity="1" stop-color="rgb(94.099426%, 20.405579%, 37.310791%)" offset="0.960938"/><stop stop-opacity="1" stop-color="rgb(94.099426%, 20.602417%, 36.917114%)" offset="0.964844"/><stop stop-opacity="1" stop-color="rgb(94.099426%, 20.799255%, 36.524963%)" offset="0.96875"/><stop stop-opacity="1" stop-color="rgb(94.099426%, 20.799255%, 35.932922%)" offset="0.972656"/><stop stop-opacity="1" stop-color="rgb(94.099426%, 20.799255%, 35.342407%)" offset="0.976562"/><stop stop-opacity="1" stop-color="rgb(94.099426%, 20.999146%, 34.701538%)" offset="0.980469"/><stop stop-opacity="1" stop-color="rgb(94.099426%, 21.199036%, 34.062195%)" offset="0.984375"/><stop stop-opacity="1" stop-color="rgb(94.099426%, 21.199036%, 33.862305%)" offset="0.988281"/><stop stop-opacity="1" stop-color="rgb(94.099426%, 21.199036%, 33.662415%)" offset="0.992188"/><stop stop-opacity="1" stop-color="rgb(94.099426%, 21.199036%, 33.081055%)" offset="0.996094"/><stop stop-opacity="1" stop-color="rgb(94.099426%, 21.199036%, 32.499695%)" offset="1"/></linearGradient></defs><g clip-path="url(#972dafa030)"><g clip-path="url(#42340e1133)"><path fill="#ffffff" d="M 7.5 25.734375 L 367.203125 25.734375 L 367.203125 134.917969 L 7.5 134.917969 Z M 7.5 25.734375 " fill-opacity="1" fill-rule="nonzero"/></g></g><g fill="#811e2f" fill-opacity="1"><g transform="translate(109.475718, 89.10081)"><g><path d="M 11.0625 0.265625 C 9.1875 0.265625 7.492188 -0.144531 5.984375 -0.96875 C 4.484375 -1.789062 3.300781 -2.921875 2.4375 -4.359375 C 1.582031 -5.804688 1.15625 -7.441406 1.15625 -9.265625 C 1.15625 -11.078125 1.585938 -12.707031 2.453125 -14.15625 C 3.316406 -15.601562 4.503906 -16.734375 6.015625 -17.546875 C 7.523438 -18.367188 9.210938 -18.78125 11.078125 -18.78125 C 12.597656 -18.78125 13.984375 -18.515625 15.234375 -17.984375 C 16.484375 -17.453125 17.539062 -16.6875 18.40625 -15.6875 L 16.1875 -13.59375 C 14.84375 -15.039062 13.195312 -15.765625 11.25 -15.765625 C 9.976562 -15.765625 8.835938 -15.484375 7.828125 -14.921875 C 6.828125 -14.367188 6.039062 -13.597656 5.46875 -12.609375 C 4.90625 -11.628906 4.625 -10.515625 4.625 -9.265625 C 4.625 -8.003906 4.90625 -6.878906 5.46875 -5.890625 C 6.039062 -4.910156 6.828125 -4.140625 7.828125 -3.578125 C 8.835938 -3.023438 9.976562 -2.75 11.25 -2.75 C 13.195312 -2.75 14.84375 -3.484375 16.1875 -4.953125 L 18.40625 -2.828125 C 17.539062 -1.828125 16.476562 -1.0625 15.21875 -0.53125 C 13.957031 0 12.570312 0.265625 11.0625 0.265625 Z M 11.0625 0.265625 "/></g></g></g><g fill="#811e2f" fill-opacity="1"><g transform="translate(128.702071, 89.10081)"><g><path d="M 8.515625 0.1875 C 7.085938 0.1875 5.800781 -0.117188 4.65625 -0.734375 C 3.507812 -1.359375 2.613281 -2.21875 1.96875 -3.3125 C 1.320312 -4.414062 1 -5.664062 1 -7.0625 C 1 -8.457031 1.320312 -9.703125 1.96875 -10.796875 C 2.613281 -11.890625 3.507812 -12.742188 4.65625 -13.359375 C 5.800781 -13.972656 7.085938 -14.28125 8.515625 -14.28125 C 9.960938 -14.28125 11.257812 -13.972656 12.40625 -13.359375 C 13.550781 -12.742188 14.445312 -11.890625 15.09375 -10.796875 C 15.738281 -9.703125 16.0625 -8.457031 16.0625 -7.0625 C 16.0625 -5.664062 15.738281 -4.414062 15.09375 -3.3125 C 14.445312 -2.21875 13.550781 -1.359375 12.40625 -0.734375 C 11.257812 -0.117188 9.960938 0.1875 8.515625 0.1875 Z M 8.515625 -2.640625 C 9.734375 -2.640625 10.738281 -3.046875 11.53125 -3.859375 C 12.320312 -4.671875 12.71875 -5.738281 12.71875 -7.0625 C 12.71875 -8.382812 12.320312 -9.453125 11.53125 -10.265625 C 10.738281 -11.078125 9.734375 -11.484375 8.515625 -11.484375 C 7.296875 -11.484375 6.296875 -11.078125 5.515625 -10.265625 C 4.734375 -9.453125 4.34375 -8.382812 4.34375 -7.0625 C 4.34375 -5.738281 4.734375 -4.671875 5.515625 -3.859375 C 6.296875 -3.046875 7.296875 -2.640625 8.515625 -2.640625 Z M 8.515625 -2.640625 "/></g></g></g><g fill="#811e2f" fill-opacity="1"><g transform="translate(145.759842, 89.10081)"><g><path d="M 2.171875 -19.625 L 5.46875 -19.625 L 5.46875 0 L 2.171875 0 Z M 2.171875 -19.625 "/></g></g></g><g fill="#811e2f" fill-opacity="1"><g transform="translate(153.402784, 89.10081)"><g><path d="M 2.171875 -19.625 L 5.46875 -19.625 L 5.46875 0 L 2.171875 0 Z M 2.171875 -19.625 "/></g></g></g><g fill="#811e2f" fill-opacity="1"><g transform="translate(161.045726, 89.10081)"><g><path d="M 7.5625 -14.28125 C 9.644531 -14.28125 11.238281 -13.78125 12.34375 -12.78125 C 13.445312 -11.789062 14 -10.289062 14 -8.28125 L 14 0 L 10.875 0 L 10.875 -1.71875 C 10.46875 -1.101562 9.890625 -0.628906 9.140625 -0.296875 C 8.390625 0.0234375 7.484375 0.1875 6.421875 0.1875 C 5.367188 0.1875 4.441406 0.00390625 3.640625 -0.359375 C 2.847656 -0.722656 2.234375 -1.222656 1.796875 -1.859375 C 1.367188 -2.503906 1.15625 -3.234375 1.15625 -4.046875 C 1.15625 -5.316406 1.628906 -6.332031 2.578125 -7.09375 C 3.523438 -7.863281 5.007812 -8.25 7.03125 -8.25 L 10.6875 -8.25 L 10.6875 -8.46875 C 10.6875 -9.457031 10.390625 -10.210938 9.796875 -10.734375 C 9.210938 -11.265625 8.335938 -11.53125 7.171875 -11.53125 C 6.378906 -11.53125 5.597656 -11.40625 4.828125 -11.15625 C 4.054688 -10.914062 3.410156 -10.570312 2.890625 -10.125 L 1.59375 -12.53125 C 2.332031 -13.101562 3.21875 -13.535156 4.25 -13.828125 C 5.289062 -14.128906 6.394531 -14.28125 7.5625 -14.28125 Z M 7.109375 -2.21875 C 7.941406 -2.21875 8.679688 -2.40625 9.328125 -2.78125 C 9.972656 -3.164062 10.425781 -3.710938 10.6875 -4.421875 L 10.6875 -6.0625 L 7.28125 -6.0625 C 5.375 -6.0625 4.421875 -5.429688 4.421875 -4.171875 C 4.421875 -3.578125 4.65625 -3.101562 5.125 -2.75 C 5.601562 -2.394531 6.265625 -2.21875 7.109375 -2.21875 Z M 7.109375 -2.21875 "/></g></g></g><g fill="#811e2f" fill-opacity="1"><g transform="translate(177.098536, 89.10081)"><g><path d="M 16.1875 -14.125 L 16.1875 -2.140625 C 16.1875 2.828125 13.648438 5.3125 8.578125 5.3125 C 7.210938 5.3125 5.921875 5.140625 4.703125 4.796875 C 3.492188 4.453125 2.488281 3.957031 1.6875 3.3125 L 3.171875 0.8125 C 3.785156 1.332031 4.566406 1.742188 5.515625 2.046875 C 6.460938 2.359375 7.421875 2.515625 8.390625 2.515625 C 9.941406 2.515625 11.078125 2.160156 11.796875 1.453125 C 12.515625 0.742188 12.875 -0.328125 12.875 -1.765625 L 12.875 -2.515625 C 12.3125 -1.898438 11.625 -1.429688 10.8125 -1.109375 C 10.007812 -0.796875 9.117188 -0.640625 8.140625 -0.640625 C 6.804688 -0.640625 5.597656 -0.925781 4.515625 -1.5 C 3.429688 -2.070312 2.570312 -2.875 1.9375 -3.90625 C 1.3125 -4.945312 1 -6.140625 1 -7.484375 C 1 -8.828125 1.3125 -10.015625 1.9375 -11.046875 C 2.570312 -12.078125 3.429688 -12.875 4.515625 -13.4375 C 5.597656 -14 6.804688 -14.28125 8.140625 -14.28125 C 9.171875 -14.28125 10.101562 -14.113281 10.9375 -13.78125 C 11.769531 -13.445312 12.472656 -12.9375 13.046875 -12.25 L 13.046875 -14.125 Z M 8.65625 -3.4375 C 9.90625 -3.4375 10.929688 -3.8125 11.734375 -4.5625 C 12.535156 -5.3125 12.9375 -6.285156 12.9375 -7.484375 C 12.9375 -8.671875 12.535156 -9.632812 11.734375 -10.375 C 10.929688 -11.113281 9.90625 -11.484375 8.65625 -11.484375 C 7.382812 -11.484375 6.347656 -11.113281 5.546875 -10.375 C 4.742188 -9.632812 4.34375 -8.671875 4.34375 -7.484375 C 4.34375 -6.285156 4.742188 -5.3125 5.546875 -4.5625 C 6.347656 -3.8125 7.382812 -3.4375 8.65625 -3.4375 Z M 8.65625 -3.4375 "/></g></g></g><g fill="#811e2f" fill-opacity="1"><g transform="translate(195.452163, 89.10081)"><g><path d="M 15.453125 -6.984375 C 15.453125 -6.753906 15.429688 -6.425781 15.390625 -6 L 4.3125 -6 C 4.507812 -4.957031 5.015625 -4.132812 5.828125 -3.53125 C 6.648438 -2.925781 7.671875 -2.625 8.890625 -2.625 C 10.441406 -2.625 11.71875 -3.132812 12.71875 -4.15625 L 14.5 -2.109375 C 13.863281 -1.359375 13.0625 -0.785156 12.09375 -0.390625 C 11.125 -0.00390625 10.03125 0.1875 8.8125 0.1875 C 7.257812 0.1875 5.890625 -0.117188 4.703125 -0.734375 C 3.523438 -1.359375 2.613281 -2.21875 1.96875 -3.3125 C 1.320312 -4.414062 1 -5.664062 1 -7.0625 C 1 -8.4375 1.3125 -9.675781 1.9375 -10.78125 C 2.570312 -11.882812 3.441406 -12.742188 4.546875 -13.359375 C 5.660156 -13.972656 6.914062 -14.28125 8.3125 -14.28125 C 9.6875 -14.28125 10.914062 -13.972656 12 -13.359375 C 13.082031 -12.753906 13.925781 -11.898438 14.53125 -10.796875 C 15.144531 -9.703125 15.453125 -8.429688 15.453125 -6.984375 Z M 8.3125 -11.640625 C 7.25 -11.640625 6.351562 -11.328125 5.625 -10.703125 C 4.894531 -10.078125 4.445312 -9.242188 4.28125 -8.203125 L 12.296875 -8.203125 C 12.160156 -9.222656 11.726562 -10.050781 11 -10.6875 C 10.28125 -11.320312 9.382812 -11.640625 8.3125 -11.640625 Z M 8.3125 -11.640625 "/></g></g></g><g fill="#811e2f" fill-opacity="1"><g transform="translate(211.901671, 89.10081)"><g/></g></g><g fill="#811e2f" fill-opacity="1"><g transform="translate(219.200804, 89.10081)"><g><path d="M 14.578125 -2.90625 L 14.578125 0 L 0.921875 0 L 0.921875 -2.296875 L 8.28125 -9.28125 C 9.101562 -10.070312 9.660156 -10.765625 9.953125 -11.359375 C 10.242188 -11.953125 10.390625 -12.539062 10.390625 -13.125 C 10.390625 -13.988281 10.097656 -14.648438 9.515625 -15.109375 C 8.941406 -15.566406 8.085938 -15.796875 6.953125 -15.796875 C 5.066406 -15.796875 3.625 -15.148438 2.625 -13.859375 L 0.21875 -15.71875 C 0.9375 -16.6875 1.90625 -17.4375 3.125 -17.96875 C 4.351562 -18.507812 5.726562 -18.78125 7.25 -18.78125 C 9.257812 -18.78125 10.863281 -18.300781 12.0625 -17.34375 C 13.257812 -16.394531 13.859375 -15.101562 13.859375 -13.46875 C 13.859375 -12.457031 13.644531 -11.507812 13.21875 -10.625 C 12.800781 -9.75 11.992188 -8.75 10.796875 -7.625 L 5.84375 -2.90625 Z M 14.578125 -2.90625 "/></g></g></g><g fill="#811e2f" fill-opacity="1"><g transform="translate(234.592464, 89.10081)"><g/></g></g><g fill="#811e2f" fill-opacity="1"><g transform="translate(241.879907, 89.10081)"><g><path d="M 2.484375 -18.515625 L 5.921875 -18.515625 L 5.921875 0 L 2.484375 0 Z M 2.484375 -18.515625 "/></g></g></g><g fill="#811e2f" fill-opacity="1"><g transform="translate(250.316232, 89.10081)"><g><path d="M 20 -14.28125 C 21.78125 -14.28125 23.191406 -13.765625 24.234375 -12.734375 C 25.273438 -11.703125 25.796875 -10.15625 25.796875 -8.09375 L 25.796875 0 L 22.484375 0 L 22.484375 -7.671875 C 22.484375 -8.898438 22.207031 -9.828125 21.65625 -10.453125 C 21.113281 -11.085938 20.332031 -11.40625 19.3125 -11.40625 C 18.195312 -11.40625 17.304688 -11.035156 16.640625 -10.296875 C 15.972656 -9.566406 15.640625 -8.523438 15.640625 -7.171875 L 15.640625 0 L 12.328125 0 L 12.328125 -7.671875 C 12.328125 -8.898438 12.050781 -9.828125 11.5 -10.453125 C 10.957031 -11.085938 10.175781 -11.40625 9.15625 -11.40625 C 8.019531 -11.40625 7.117188 -11.039062 6.453125 -10.3125 C 5.796875 -9.59375 5.46875 -8.546875 5.46875 -7.171875 L 5.46875 0 L 2.171875 0 L 2.171875 -14.125 L 5.3125 -14.125 L 5.3125 -12.328125 C 5.84375 -12.960938 6.503906 -13.445312 7.296875 -13.78125 C 8.085938 -14.113281 8.972656 -14.28125 9.953125 -14.28125 C 11.003906 -14.28125 11.941406 -14.082031 12.765625 -13.6875 C 13.585938 -13.289062 14.234375 -12.707031 14.703125 -11.9375 C 15.285156 -12.675781 16.035156 -13.25 16.953125 -13.65625 C 17.867188 -14.070312 18.882812 -14.28125 20 -14.28125 Z M 20 -14.28125 "/></g></g></g><g fill="#811e2f" fill-opacity="1"><g transform="translate(278.164031, 89.10081)"><g><path d="M 7.5625 -14.28125 C 9.644531 -14.28125 11.238281 -13.78125 12.34375 -12.78125 C 13.445312 -11.789062 14 -10.289062 14 -8.28125 L 14 0 L 10.875 0 L 10.875 -1.71875 C 10.46875 -1.101562 9.890625 -0.628906 9.140625 -0.296875 C 8.390625 0.0234375 7.484375 0.1875 6.421875 0.1875 C 5.367188 0.1875 4.441406 0.00390625 3.640625 -0.359375 C 2.847656 -0.722656 2.234375 -1.222656 1.796875 -1.859375 C 1.367188 -2.503906 1.15625 -3.234375 1.15625 -4.046875 C 1.15625 -5.316406 1.628906 -6.332031 2.578125 -7.09375 C 3.523438 -7.863281 5.007812 -8.25 7.03125 -8.25 L 10.6875 -8.25 L 10.6875 -8.46875 C 10.6875 -9.457031 10.390625 -10.210938 9.796875 -10.734375 C 9.210938 -11.265625 8.335938 -11.53125 7.171875 -11.53125 C 6.378906 -11.53125 5.597656 -11.40625 4.828125 -11.15625 C 4.054688 -10.914062 3.410156 -10.570312 2.890625 -10.125 L 1.59375 -12.53125 C 2.332031 -13.101562 3.21875 -13.535156 4.25 -13.828125 C 5.289062 -14.128906 6.394531 -14.28125 7.5625 -14.28125 Z M 7.109375 -2.21875 C 7.941406 -2.21875 8.679688 -2.40625 9.328125 -2.78125 C 9.972656 -3.164062 10.425781 -3.710938 10.6875 -4.421875 L 10.6875 -6.0625 L 7.28125 -6.0625 C 5.375 -6.0625 4.421875 -5.429688 4.421875 -4.171875 C 4.421875 -3.578125 4.65625 -3.101562 5.125 -2.75 C 5.601562 -2.394531 6.265625 -2.21875 7.109375 -2.21875 Z M 7.109375 -2.21875 "/></g></g></g><g fill="#811e2f" fill-opacity="1"><g transform="translate(294.216842, 89.10081)"><g><path d="M 16.1875 -14.125 L 16.1875 -2.140625 C 16.1875 2.828125 13.648438 5.3125 8.578125 5.3125 C 7.210938 5.3125 5.921875 5.140625 4.703125 4.796875 C 3.492188 4.453125 2.488281 3.957031 1.6875 3.3125 L 3.171875 0.8125 C 3.785156 1.332031 4.566406 1.742188 5.515625 2.046875 C 6.460938 2.359375 7.421875 2.515625 8.390625 2.515625 C 9.941406 2.515625 11.078125 2.160156 11.796875 1.453125 C 12.515625 0.742188 12.875 -0.328125 12.875 -1.765625 L 12.875 -2.515625 C 12.3125 -1.898438 11.625 -1.429688 10.8125 -1.109375 C 10.007812 -0.796875 9.117188 -0.640625 8.140625 -0.640625 C 6.804688 -0.640625 5.597656 -0.925781 4.515625 -1.5 C 3.429688 -2.070312 2.570312 -2.875 1.9375 -3.90625 C 1.3125 -4.945312 1 -6.140625 1 -7.484375 C 1 -8.828125 1.3125 -10.015625 1.9375 -11.046875 C 2.570312 -12.078125 3.429688 -12.875 4.515625 -13.4375 C 5.597656 -14 6.804688 -14.28125 8.140625 -14.28125 C 9.171875 -14.28125 10.101562 -14.113281 10.9375 -13.78125 C 11.769531 -13.445312 12.472656 -12.9375 13.046875 -12.25 L 13.046875 -14.125 Z M 8.65625 -3.4375 C 9.90625 -3.4375 10.929688 -3.8125 11.734375 -4.5625 C 12.535156 -5.3125 12.9375 -6.285156 12.9375 -7.484375 C 12.9375 -8.671875 12.535156 -9.632812 11.734375 -10.375 C 10.929688 -11.113281 9.90625 -11.484375 8.65625 -11.484375 C 7.382812 -11.484375 6.347656 -11.113281 5.546875 -10.375 C 4.742188 -9.632812 4.34375 -8.671875 4.34375 -7.484375 C 4.34375 -6.285156 4.742188 -5.3125 5.546875 -4.5625 C 6.347656 -3.8125 7.382812 -3.4375 8.65625 -3.4375 Z M 8.65625 -3.4375 "/></g></g></g><g fill="#811e2f" fill-opacity="1"><g transform="translate(312.570468, 89.10081)"><g><path d="M 15.453125 -6.984375 C 15.453125 -6.753906 15.429688 -6.425781 15.390625 -6 L 4.3125 -6 C 4.507812 -4.957031 5.015625 -4.132812 5.828125 -3.53125 C 6.648438 -2.925781 7.671875 -2.625 8.890625 -2.625 C 10.441406 -2.625 11.71875 -3.132812 12.71875 -4.15625 L 14.5 -2.109375 C 13.863281 -1.359375 13.0625 -0.785156 12.09375 -0.390625 C 11.125 -0.00390625 10.03125 0.1875 8.8125 0.1875 C 7.257812 0.1875 5.890625 -0.117188 4.703125 -0.734375 C 3.523438 -1.359375 2.613281 -2.21875 1.96875 -3.3125 C 1.320312 -4.414062 1 -5.664062 1 -7.0625 C 1 -8.4375 1.3125 -9.675781 1.9375 -10.78125 C 2.570312 -11.882812 3.441406 -12.742188 4.546875 -13.359375 C 5.660156 -13.972656 6.914062 -14.28125 8.3125 -14.28125 C 9.6875 -14.28125 10.914062 -13.972656 12 -13.359375 C 13.082031 -12.753906 13.925781 -11.898438 14.53125 -10.796875 C 15.144531 -9.703125 15.453125 -8.429688 15.453125 -6.984375 Z M 8.3125 -11.640625 C 7.25 -11.640625 6.351562 -11.328125 5.625 -10.703125 C 4.894531 -10.078125 4.445312 -9.242188 4.28125 -8.203125 L 12.296875 -8.203125 C 12.160156 -9.222656 11.726562 -10.050781 11 -10.6875 C 10.28125 -11.320312 9.382812 -11.640625 8.3125 -11.640625 Z M 8.3125 -11.640625 "/></g></g></g><g fill="#811e2f" fill-opacity="1"><g transform="translate(329.019976, 89.10081)"><g><path d="M 6.53125 0.1875 C 5.382812 0.1875 4.265625 0.0351562 3.171875 -0.265625 C 2.078125 -0.566406 1.207031 -0.945312 0.5625 -1.40625 L 1.828125 -3.921875 C 2.460938 -3.492188 3.222656 -3.148438 4.109375 -2.890625 C 5.003906 -2.640625 5.882812 -2.515625 6.75 -2.515625 C 8.71875 -2.515625 9.703125 -3.035156 9.703125 -4.078125 C 9.703125 -4.566406 9.453125 -4.90625 8.953125 -5.09375 C 8.453125 -5.289062 7.644531 -5.476562 6.53125 -5.65625 C 5.363281 -5.832031 4.414062 -6.035156 3.6875 -6.265625 C 2.957031 -6.492188 2.320312 -6.894531 1.78125 -7.46875 C 1.25 -8.039062 0.984375 -8.835938 0.984375 -9.859375 C 0.984375 -11.203125 1.539062 -12.273438 2.65625 -13.078125 C 3.78125 -13.878906 5.289062 -14.28125 7.1875 -14.28125 C 8.164062 -14.28125 9.140625 -14.171875 10.109375 -13.953125 C 11.078125 -13.734375 11.867188 -13.4375 12.484375 -13.0625 L 11.21875 -10.5625 C 10.019531 -11.257812 8.671875 -11.609375 7.171875 -11.609375 C 6.203125 -11.609375 5.460938 -11.460938 4.953125 -11.171875 C 4.453125 -10.878906 4.203125 -10.5 4.203125 -10.03125 C 4.203125 -9.5 4.46875 -9.125 5 -8.90625 C 5.539062 -8.6875 6.378906 -8.476562 7.515625 -8.28125 C 8.640625 -8.101562 9.5625 -7.898438 10.28125 -7.671875 C 11.007812 -7.441406 11.632812 -7.050781 12.15625 -6.5 C 12.675781 -5.957031 12.9375 -5.179688 12.9375 -4.171875 C 12.9375 -2.859375 12.363281 -1.800781 11.21875 -1 C 10.070312 -0.207031 8.507812 0.1875 6.53125 0.1875 Z M 6.53125 0.1875 "/></g></g></g><g clip-path="url(#c50dfd5b4b)"><g clip-path="url(#f50f4da60d)"><g clip-path="url(#51373cd5a3)"><path fill="url(#1a901504c2)" d="M 35.9375 107.730469 L 90.6875 107.730469 L 90.6875 52.980469 L 35.9375 52.980469 Z M 35.9375 107.730469 " fill-rule="nonzero"/></g></g></g></svg>