<svg width="90" height="90" viewBox="0 0 90 90" fill="none" xmlns="http://www.w3.org/2000/svg">
<g filter="url(#filter0_f_65_37)">
<circle cx="45" cy="45" r="37" fill="#5487EB"/>
</g>
<g filter="url(#filter1_i_65_37)">
<circle cx="45" cy="45" r="37" fill="url(#paint0_linear_65_37)"/>
</g>
<circle cx="45" cy="45" r="36.75" stroke="white" stroke-width="0.5"/>
<g filter="url(#filter2_ii_65_37)">
<circle cx="45" cy="45" r="27" fill="url(#paint1_linear_65_37)"/>
</g>
<g filter="url(#filter3_d_65_37)">
<g filter="url(#filter4_d_65_37)">
<path d="M37.3394 52.7681H52.4053C54.1982 52.7681 55.1279 51.8384 55.1279 50.0703V41.3628C55.1279 39.5947 54.1982 38.665 52.4053 38.665H50.1807C49.5332 38.665 49.3257 38.5571 48.9272 38.1338L48.2715 37.4199C47.8398 36.9717 47.3999 36.7393 46.5532 36.7393H43.1499C42.3032 36.7393 41.8633 36.9717 41.4316 37.4199L40.7759 38.1338C40.3774 38.5488 40.1616 38.665 39.5225 38.665H37.3394C35.5464 38.665 34.6167 39.5947 34.6167 41.3628V50.0703C34.6167 51.8384 35.5464 52.7681 37.3394 52.7681ZM44.8765 50.1782C42.3862 50.1782 40.394 48.1777 40.394 45.6792C40.394 43.189 42.3862 41.1885 44.8765 41.1885C47.3667 41.1885 49.3589 43.189 49.3589 45.6792C49.3589 48.1777 47.3584 50.1782 44.8765 50.1782ZM49.8901 42.6328C49.8901 42.0435 50.3965 41.5288 51.0024 41.5288C51.5918 41.5288 52.0981 42.0435 52.0981 42.6328C52.0981 43.2388 51.6001 43.7285 51.0024 43.7285C50.3965 43.7368 49.8901 43.2471 49.8901 42.6328ZM44.8765 48.6924C46.5366 48.6924 47.8813 47.356 47.8813 45.6792C47.8813 44.0107 46.5366 42.6743 44.8765 42.6743C43.2163 42.6743 41.8716 44.0107 41.8716 45.6792C41.8716 47.356 43.2163 48.6924 44.8765 48.6924Z" fill="#BEC4FC"/>
</g>
</g>
<defs>
<filter id="filter0_f_65_37" x="0" y="0" width="90" height="90" filterUnits="userSpaceOnUse" color-interpolation-filters="sRGB">
<feFlood flood-opacity="0" result="BackgroundImageFix"/>
<feBlend mode="normal" in="SourceGraphic" in2="BackgroundImageFix" result="shape"/>
<feGaussianBlur stdDeviation="4" result="effect1_foregroundBlur_65_37"/>
</filter>
<filter id="filter1_i_65_37" x="8" y="8" width="77" height="77" filterUnits="userSpaceOnUse" color-interpolation-filters="sRGB">
<feFlood flood-opacity="0" result="BackgroundImageFix"/>
<feBlend mode="normal" in="SourceGraphic" in2="BackgroundImageFix" result="shape"/>
<feColorMatrix in="SourceAlpha" type="matrix" values="0 0 0 0 0 0 0 0 0 0 0 0 0 0 0 0 0 0 127 0" result="hardAlpha"/>
<feOffset dx="3" dy="3"/>
<feGaussianBlur stdDeviation="3"/>
<feComposite in2="hardAlpha" operator="arithmetic" k2="-1" k3="1"/>
<feColorMatrix type="matrix" values="0 0 0 0 0.470588 0 0 0 0 0.658824 0 0 0 0 1 0 0 0 0.25 0"/>
<feBlend mode="normal" in2="shape" result="effect1_innerShadow_65_37"/>
</filter>
<filter id="filter2_ii_65_37" x="16" y="16" width="60" height="60" filterUnits="userSpaceOnUse" color-interpolation-filters="sRGB">
<feFlood flood-opacity="0" result="BackgroundImageFix"/>
<feBlend mode="normal" in="SourceGraphic" in2="BackgroundImageFix" result="shape"/>
<feColorMatrix in="SourceAlpha" type="matrix" values="0 0 0 0 0 0 0 0 0 0 0 0 0 0 0 0 0 0 127 0" result="hardAlpha"/>
<feOffset dx="-2" dy="-2"/>
<feGaussianBlur stdDeviation="2"/>
<feComposite in2="hardAlpha" operator="arithmetic" k2="-1" k3="1"/>
<feColorMatrix type="matrix" values="0 0 0 0 0.329412 0 0 0 0 0.32549 0 0 0 0 0.513726 0 0 0 1 0"/>
<feBlend mode="normal" in2="shape" result="effect1_innerShadow_65_37"/>
<feColorMatrix in="SourceAlpha" type="matrix" values="0 0 0 0 0 0 0 0 0 0 0 0 0 0 0 0 0 0 127 0" result="hardAlpha"/>
<feOffset dx="4" dy="4"/>
<feGaussianBlur stdDeviation="2"/>
<feComposite in2="hardAlpha" operator="arithmetic" k2="-1" k3="1"/>
<feColorMatrix type="matrix" values="0 0 0 0 0 0 0 0 0 0 0 0 0 0 0 0 0 0 0.25 0"/>
<feBlend mode="normal" in2="effect1_innerShadow_65_37" result="effect2_innerShadow_65_37"/>
</filter>
<filter id="filter3_d_65_37" x="17" y="17" width="64" height="64" filterUnits="userSpaceOnUse" color-interpolation-filters="sRGB">
<feFlood flood-opacity="0" result="BackgroundImageFix"/>
<feColorMatrix in="SourceAlpha" type="matrix" values="0 0 0 0 0 0 0 0 0 0 0 0 0 0 0 0 0 0 127 0" result="hardAlpha"/>
<feOffset dx="4" dy="4"/>
<feGaussianBlur stdDeviation="5"/>
<feComposite in2="hardAlpha" operator="out"/>
<feColorMatrix type="matrix" values="0 0 0 0 0 0 0 0 0 0 0 0 0 0 0 0 0 0 0.25 0"/>
<feBlend mode="normal" in2="BackgroundImageFix" result="effect1_dropShadow_65_37"/>
<feBlend mode="normal" in="SourceGraphic" in2="effect1_dropShadow_65_37" result="shape"/>
</filter>
<filter id="filter4_d_65_37" x="24.6167" y="36.7393" width="40.5112" height="36.0288" filterUnits="userSpaceOnUse" color-interpolation-filters="sRGB">
<feFlood flood-opacity="0" result="BackgroundImageFix"/>
<feColorMatrix in="SourceAlpha" type="matrix" values="0 0 0 0 0 0 0 0 0 0 0 0 0 0 0 0 0 0 127 0" result="hardAlpha"/>
<feOffset dy="10"/>
<feGaussianBlur stdDeviation="5"/>
<feComposite in2="hardAlpha" operator="out"/>
<feColorMatrix type="matrix" values="0 0 0 0 0 0 0 0 0 0 0 0 0 0 0 0 0 0 0.5 0"/>
<feBlend mode="normal" in2="BackgroundImageFix" result="effect1_dropShadow_65_37"/>
<feBlend mode="normal" in="SourceGraphic" in2="effect1_dropShadow_65_37" result="shape"/>
</filter>
<linearGradient id="paint0_linear_65_37" x1="45" y1="8" x2="45" y2="82" gradientUnits="userSpaceOnUse">
<stop stop-color="#5487EB"/>
<stop offset="1" stop-color="#14D2E6"/>
</linearGradient>
<linearGradient id="paint1_linear_65_37" x1="45" y1="18" x2="45" y2="72" gradientUnits="userSpaceOnUse">
<stop stop-color="#0A0D2A"/>
<stop offset="1" stop-color="#454377"/>
</linearGradient>
</defs>
</svg>
