<svg width="44" height="44" viewBox="0 0 44 44" fill="none" xmlns="http://www.w3.org/2000/svg">
<g filter="url(#filter0_b_52_130)">
<path d="M36.7455 20.3867C36.3969 19.9492 35.9767 19.5846 35.5168 19.289C34.5082 18.6301 33.3239 18.3572 32.1428 18.4994C32.1074 18.4034 32.0539 18.3042 32.0069 18.2113C31.9607 18.1169 31.8947 17.9163 31.8203 17.7835L31.6178 17.4728C31.5201 17.2933 31.4028 17.133 31.2728 16.974C31.2665 16.9498 31.2538 16.9194 31.233 16.8858L31.19 16.8582C30.8472 16.4244 30.4508 16.0528 29.9999 15.7429L29.9198 15.6913C29.7157 15.5602 29.5041 15.4443 29.2813 15.3447L29.1939 15.2885C28.9582 15.1784 28.7097 15.0929 28.4546 15.0351C25.2014 14.2404 22.4607 16.7784 21.7358 20.0708C21.411 21.7826 21.4446 23.5464 21.8311 25.227C22.4292 27.6074 23.2562 29.9014 24.3033 32.082L24.4223 32.3294L24.6706 32.3287C26.9584 32.2811 29.2288 31.978 31.454 31.423C33.0272 31.0021 34.5 30.1959 35.7504 29.0791C38.1084 26.8365 38.9106 23.0523 36.7455 20.3867Z" fill="url(#paint0_linear_52_130)"/>
</g>
<g opacity="0.5" filter="url(#filter1_f_52_130)">
<path d="M31.9645 21.564C31.7445 21.2879 31.4794 21.0579 31.1892 20.8713C30.5527 20.4555 29.8053 20.2833 29.06 20.3731C29.0377 20.3125 29.004 20.2499 28.9742 20.1913C28.9451 20.1317 28.9034 20.0051 28.8565 19.9213L28.7287 19.7253C28.6671 19.612 28.593 19.5108 28.511 19.4105C28.5071 19.3952 28.4991 19.376 28.4859 19.3548L28.4588 19.3374C28.2425 19.0637 27.9923 18.8292 27.7078 18.6336L27.6572 18.6011C27.5284 18.5183 27.3949 18.4452 27.2543 18.3823L27.1991 18.3468C27.0504 18.2774 26.8936 18.2234 26.7326 18.187C24.6797 17.6854 22.9502 19.2871 22.4928 21.3647C22.2878 22.4449 22.309 23.5579 22.5529 24.6185C22.9304 26.1206 23.4522 27.5682 24.113 28.9442L24.1881 29.1004L24.3447 29.0999C25.7885 29.0699 27.2212 28.8786 28.6254 28.5284C29.6181 28.2628 30.5475 27.754 31.3365 27.0493C32.8246 25.6341 33.3308 23.2462 31.9645 21.564Z" fill="#EE2965"/>
</g>
<g filter="url(#filter2_b_52_130)">
<path d="M34.7021 12.4044C34.6175 12.3153 34.5183 12.2437 34.4118 12.1882C34.1778 12.064 33.9121 12.0285 33.6547 12.0843C33.6452 12.0639 33.6316 12.0432 33.6196 12.0237C33.6077 12.0039 33.5895 11.9611 33.5708 11.9334L33.5205 11.8692C33.4958 11.8317 33.4671 11.7988 33.4356 11.7665C33.4337 11.7613 33.4304 11.7549 33.4252 11.7479L33.4152 11.7427C33.3319 11.6543 33.2379 11.5808 33.1331 11.5219L33.1145 11.5122C33.0672 11.4875 33.0185 11.4664 32.9677 11.4491L32.9474 11.4385C32.8935 11.4192 32.8373 11.4055 32.7801 11.3981C32.0495 11.2906 31.4922 11.9063 31.3924 12.6463C31.3519 13.03 31.3913 13.4176 31.5068 13.7797C31.6816 14.2914 31.9053 14.7793 32.1753 15.2377L32.206 15.2897L32.2606 15.2844C32.7634 15.2265 33.2576 15.1126 33.7374 14.9442C34.0761 14.8189 34.3857 14.6108 34.6406 14.339C35.1191 13.7962 35.227 12.9464 34.7021 12.4044Z" fill="url(#paint1_linear_52_130)"/>
</g>
<g filter="url(#filter3_b_52_130)">
<mask id="path-4-outside-1_52_130" maskUnits="userSpaceOnUse" x="2.85723" y="5.80402" width="30.8549" height="31.5748" fill="black">
<rect fill="white" x="2.85723" y="5.80402" width="30.8549" height="31.5748"/>
<path d="M23.2575 8.3513C22.4831 8.22393 21.6945 8.25014 20.9234 8.39304C19.2229 8.69476 17.6718 9.60225 16.4938 10.9649C16.3692 10.895 16.2219 10.8401 16.0873 10.7855C15.9522 10.7283 15.7007 10.5741 15.5005 10.5034L15.0002 10.367C14.7326 10.2683 14.4603 10.211 14.1752 10.1681C14.1468 10.1478 14.1057 10.1271 14.0528 10.1113L13.9807 10.1246C13.2161 9.99546 12.4474 9.98966 11.6736 10.1075L11.5392 10.1324C11.1971 10.1958 10.8602 10.2838 10.5255 10.4011L10.3789 10.4283C10.0205 10.5473 9.67 10.7066 9.33679 10.9032C5.03606 13.346 4.26736 18.9472 6.3967 23.3239C7.56126 25.5463 9.16806 27.4603 11.0907 28.9222C13.8697 30.9411 16.8246 32.6308 19.9219 33.9707L20.2736 34.1225L20.5471 33.8682C23.0319 31.4803 25.2701 28.828 27.2342 25.9435C28.5972 23.8726 29.5067 21.4788 29.8939 18.9688C30.5029 14.0846 28.0213 9.08575 23.2575 8.3513Z"/>
</mask>
<path d="M23.2575 8.3513C22.4831 8.22393 21.6945 8.25014 20.9234 8.39304C19.2229 8.69476 17.6718 9.60225 16.4938 10.9649C16.3692 10.895 16.2219 10.8401 16.0873 10.7855C15.9522 10.7283 15.7007 10.5741 15.5005 10.5034L15.0002 10.367C14.7326 10.2683 14.4603 10.211 14.1752 10.1681C14.1468 10.1478 14.1057 10.1271 14.0528 10.1113L13.9807 10.1246C13.2161 9.99546 12.4474 9.98966 11.6736 10.1075L11.5392 10.1324C11.1971 10.1958 10.8602 10.2838 10.5255 10.4011L10.3789 10.4283C10.0205 10.5473 9.67 10.7066 9.33679 10.9032C5.03606 13.346 4.26736 18.9472 6.3967 23.3239C7.56126 25.5463 9.16806 27.4603 11.0907 28.9222C13.8697 30.9411 16.8246 32.6308 19.9219 33.9707L20.2736 34.1225L20.5471 33.8682C23.0319 31.4803 25.2701 28.828 27.2342 25.9435C28.5972 23.8726 29.5067 21.4788 29.8939 18.9688C30.5029 14.0846 28.0213 9.08575 23.2575 8.3513Z" fill="#FF749F" fill-opacity="0.35"/>
<path d="M20.9234 8.39304L20.9668 8.67487L20.9689 8.67447L20.9234 8.39304ZM16.4938 10.9649L16.3515 11.2157C16.4683 11.2812 16.6166 11.2538 16.7061 11.1502L16.4938 10.9649ZM16.0873 10.7855L15.9725 11.0498L15.9764 11.0514L16.0873 10.7855ZM15.5005 10.5034L15.5996 10.2331C15.5932 10.2308 15.5867 10.2288 15.5802 10.227L15.5005 10.5034ZM15.0002 10.367L14.8976 10.636C14.9052 10.6388 14.9128 10.6412 14.9206 10.6434L15.0002 10.367ZM14.1752 10.1681L14.0077 10.4028C14.0431 10.4281 14.0841 10.4447 14.1274 10.4512L14.1752 10.1681ZM14.0528 10.1113L14.1389 9.83676C14.0964 9.82406 14.0513 9.8217 14.0073 9.82986L14.0528 10.1113ZM13.9807 10.1246L13.9279 10.4069C13.9603 10.4124 13.9936 10.4121 14.0262 10.4061L13.9807 10.1246ZM11.6736 10.1075L11.6372 9.82438L11.6281 9.82605L11.6736 10.1075ZM11.5392 10.1324L11.4937 9.85096L11.5392 10.1324ZM10.5255 10.4011L10.571 10.6826C10.5854 10.6799 10.5996 10.6761 10.6135 10.6712L10.5255 10.4011ZM10.3789 10.4283L10.3334 10.1469C10.3205 10.1493 10.3078 10.1526 10.2953 10.1567L10.3789 10.4283ZM9.33679 10.9032L9.47213 11.1518L9.47624 11.1494L9.33679 10.9032ZM6.3967 23.3239L6.14109 23.4544L6.14497 23.4618L6.3967 23.3239ZM11.0907 28.9222L10.9165 29.1521L10.9214 29.1556L11.0907 28.9222ZM19.9219 33.9707L19.8051 34.234L19.8053 34.2341L19.9219 33.9707ZM20.2736 34.1225L20.1571 34.3859C20.2597 34.4302 20.38 34.4086 20.4636 34.3309L20.2736 34.1225ZM20.5471 33.8682L20.7372 34.0767L20.7408 34.0733L20.5471 33.8682ZM27.2342 25.9435L27.4672 26.102L27.4698 26.0981L27.2342 25.9435ZM29.8939 18.9688L30.1746 19.0068L30.1757 18.9984L29.8939 18.9688ZM23.3092 8.06883C22.4987 7.93552 21.6769 7.96353 20.878 8.11162L20.9689 8.67447C21.712 8.53674 22.4675 8.51233 23.2059 8.63377L23.3092 8.06883ZM20.8801 8.11123C19.111 8.42511 17.5011 9.36874 16.2814 10.7796L16.7061 11.1502C17.8425 9.83577 19.3348 8.96441 20.9668 8.67486L20.8801 8.11123ZM16.636 10.7142C16.4918 10.6332 16.3209 10.5694 16.1981 10.5197L15.9764 11.0514C16.1229 11.1107 16.2467 11.1568 16.3515 11.2157L16.636 10.7142ZM16.202 10.5213C16.1479 10.4984 16.0686 10.4549 15.9529 10.3947C15.8484 10.3402 15.72 10.2756 15.5996 10.2331L15.4014 10.7737C15.4812 10.8019 15.5787 10.8497 15.6837 10.9044C15.7775 10.9533 15.8915 11.0155 15.9725 11.0497L16.202 10.5213ZM15.5802 10.227L15.0799 10.0906L14.9206 10.6434L15.4208 10.7798L15.5802 10.227ZM15.1029 10.098C14.8108 9.99029 14.518 9.92939 14.2231 9.88504L14.1274 10.4512C14.4026 10.4926 14.6544 10.5464 14.8976 10.636L15.1029 10.098ZM14.3428 9.93346C14.2859 9.89282 14.2163 9.85989 14.1389 9.83676L13.9667 10.3858C13.9803 10.3899 13.9906 10.394 13.9978 10.3975C14.0052 10.4009 14.0082 10.4031 14.0077 10.4028L14.3428 9.93346ZM14.0073 9.82986L13.9352 9.84322L14.0262 10.4061L14.0983 10.3927L14.0073 9.82986ZM14.0336 9.84237C13.2394 9.7082 12.4407 9.70219 11.6372 9.82452L11.7101 10.3904C12.4542 10.2771 13.1927 10.2827 13.9279 10.4069L14.0336 9.84237ZM11.6281 9.82605L11.4937 9.85096L11.5847 10.4138L11.7191 10.3889L11.6281 9.82605ZM11.4937 9.85096C11.1379 9.9169 10.7868 10.0086 10.4375 10.1311L10.6135 10.6712C10.9336 10.5591 11.2562 10.4747 11.5847 10.4138L11.4937 9.85096ZM10.48 10.1197L10.3334 10.1469L10.4243 10.7097L10.571 10.6826L10.48 10.1197ZM10.2953 10.1567C9.91744 10.2822 9.54816 10.45 9.19734 10.657L9.47624 11.1494C9.79183 10.9632 10.1237 10.8124 10.4624 10.6999L10.2953 10.1567ZM9.20147 10.6546C4.72127 13.1994 3.97109 18.9939 6.1412 23.4544L6.6522 23.1935C4.56363 18.9006 5.35086 13.4926 9.47211 11.1517L9.20147 10.6546ZM6.14497 23.4618C7.32784 25.7192 8.96071 27.6649 10.9165 29.152L11.2648 28.6924C9.37541 27.2558 7.79468 25.3735 6.64844 23.186L6.14497 23.4618ZM10.9214 29.1556C13.7164 31.1861 16.6889 32.8859 19.8051 34.234L20.0386 33.7073C16.9604 32.3756 14.023 30.696 11.26 28.6888L10.9214 29.1556ZM19.8053 34.2341L20.1571 34.3859L20.3901 33.859L20.0384 33.7072L19.8053 34.2341ZM20.4636 34.3309L20.7372 34.0767L20.3571 33.6598L20.0836 33.914L20.4636 34.3309ZM20.7408 34.0733C23.2404 31.671 25.4918 29.0031 27.4672 26.1019L27.0011 25.7851C25.0484 28.6529 22.8234 31.2895 20.3535 33.6632L20.7408 34.0733ZM27.4698 26.0981C28.857 23.9906 29.7811 21.5567 30.1745 19.0067L29.6134 18.9308C29.2323 21.4009 28.3375 23.7547 26.9986 25.789L27.4698 26.0981ZM30.1757 18.9984C30.796 14.0231 28.2728 8.83408 23.3064 8.06839L23.2086 8.63422C27.7698 9.33743 30.2098 14.146 29.6122 18.9392L30.1757 18.9984Z" fill="url(#paint2_linear_52_130)" mask="url(#path-4-outside-1_52_130)"/>
</g>
<g filter="url(#filter4_bd_52_130)">
<path d="M26.5008 16.0379C26.5532 16.5956 26.1951 17.1055 25.6965 17.2127C25.4232 17.2351 25.1457 17.1531 24.9387 16.9623C24.7316 16.7715 24.6006 16.4979 24.5754 16.194L24.5688 16.1534C24.421 15.2387 23.7634 14.5101 22.9294 14.3412C22.3847 14.2413 22.0186 13.6891 22.1008 13.1078C22.1953 12.5242 22.6984 12.1331 23.2292 12.2247C24.9103 12.5736 26.2161 14.042 26.4757 15.8822L26.5008 16.0379Z" fill="url(#paint3_linear_52_130)"/>
<path d="M24.632 16.188L24.6322 16.1879L24.6314 16.1836L24.6249 16.143C24.4738 15.2077 23.8008 14.459 22.9417 14.285L22.9417 14.285L22.9407 14.2848C22.4284 14.1909 22.0789 13.6692 22.157 13.1152C22.2471 12.5602 22.7225 12.1961 23.2176 12.281C24.8732 12.625 26.1629 14.0728 26.4195 15.8914L26.4194 15.8914L26.4196 15.8926L26.4445 16.0464C26.4933 16.5757 26.154 17.0539 25.6894 17.156C25.4313 17.1761 25.1711 17.0981 24.9775 16.9197C24.7813 16.7389 24.6561 16.4786 24.632 16.188Z" stroke="url(#paint4_linear_52_130)" stroke-width="0.11403"/>
</g>
<defs>
<filter id="filter0_b_52_130" x="17.8085" y="11.1823" width="23.9072" height="24.8531" filterUnits="userSpaceOnUse" color-interpolation-filters="sRGB">
<feFlood flood-opacity="0" result="BackgroundImageFix"/>
<feGaussianBlur in="BackgroundImageFix" stdDeviation="1.853"/>
<feComposite in2="SourceAlpha" operator="in" result="effect1_backgroundBlur_52_130"/>
<feBlend mode="normal" in="SourceGraphic" in2="effect1_backgroundBlur_52_130" result="shape"/>
</filter>
<filter id="filter1_f_52_130" x="17.2218" y="12.9629" width="20.6719" height="21.2688" filterUnits="userSpaceOnUse" color-interpolation-filters="sRGB">
<feFlood flood-opacity="0" result="BackgroundImageFix"/>
<feBlend mode="normal" in="SourceGraphic" in2="BackgroundImageFix" result="shape"/>
<feGaussianBlur stdDeviation="2.56569" result="effect1_foregroundBlur_52_130"/>
</filter>
<filter id="filter2_b_52_130" x="27.671" y="7.67987" width="11.0853" height="11.3159" filterUnits="userSpaceOnUse" color-interpolation-filters="sRGB">
<feFlood flood-opacity="0" result="BackgroundImageFix"/>
<feGaussianBlur in="BackgroundImageFix" stdDeviation="1.853"/>
<feComposite in2="SourceAlpha" operator="in" result="effect1_backgroundBlur_52_130"/>
<feBlend mode="normal" in="SourceGraphic" in2="effect1_backgroundBlur_52_130" result="shape"/>
</filter>
<filter id="filter3_b_52_130" x="-1.87149" y="1.1412" width="38.9815" height="40.1093" filterUnits="userSpaceOnUse" color-interpolation-filters="sRGB">
<feFlood flood-opacity="0" result="BackgroundImageFix"/>
<feGaussianBlur in="BackgroundImageFix" stdDeviation="3.42091"/>
<feComposite in2="SourceAlpha" operator="in" result="effect1_backgroundBlur_52_130"/>
<feBlend mode="normal" in="SourceGraphic" in2="effect1_backgroundBlur_52_130" result="shape"/>
</filter>
<filter id="filter4_bd_52_130" x="17.8132" y="7.93528" width="12.9689" height="13.5571" filterUnits="userSpaceOnUse" color-interpolation-filters="sRGB">
<feFlood flood-opacity="0" result="BackgroundImageFix"/>
<feGaussianBlur in="BackgroundImageFix" stdDeviation="2.13807"/>
<feComposite in2="SourceAlpha" operator="in" result="effect1_backgroundBlur_52_130"/>
<feColorMatrix in="SourceAlpha" type="matrix" values="0 0 0 0 0 0 0 0 0 0 0 0 0 0 0 0 0 0 127 0" result="hardAlpha"/>
<feOffset dx="1.42538" dy="1.42538"/>
<feGaussianBlur stdDeviation="1.42538"/>
<feColorMatrix type="matrix" values="0 0 0 0 1 0 0 0 0 0.321569 0 0 0 0 0.54902 0 0 0 0.5 0"/>
<feBlend mode="normal" in2="effect1_backgroundBlur_52_130" result="effect2_dropShadow_52_130"/>
<feBlend mode="normal" in="SourceGraphic" in2="effect2_dropShadow_52_130" result="shape"/>
</filter>
<linearGradient id="paint0_linear_52_130" x1="29.0724" y1="26.5832" x2="12.6598" y2="25.5473" gradientUnits="userSpaceOnUse">
<stop stop-color="#FF759F"/>
<stop offset="1" stop-color="#FF196E"/>
</linearGradient>
<linearGradient id="paint1_linear_52_130" x1="33.1254" y1="13.928" x2="29.493" y2="13.9975" gradientUnits="userSpaceOnUse">
<stop stop-color="#FF759F"/>
<stop offset="1" stop-color="#FF196E"/>
</linearGradient>
<linearGradient id="paint2_linear_52_130" x1="8.35828" y1="13.7053" x2="27.4147" y2="30.1198" gradientUnits="userSpaceOnUse">
<stop stop-color="white" stop-opacity="0.25"/>
<stop offset="1" stop-color="white" stop-opacity="0"/>
</linearGradient>
<linearGradient id="paint3_linear_52_130" x1="25.6813" y1="12.7066" x2="21.3723" y2="13.5081" gradientUnits="userSpaceOnUse">
<stop stop-color="white"/>
<stop offset="1" stop-color="white" stop-opacity="0.2"/>
</linearGradient>
<linearGradient id="paint4_linear_52_130" x1="22.6505" y1="12.9158" x2="26.6013" y2="15.4039" gradientUnits="userSpaceOnUse">
<stop stop-color="white" stop-opacity="0.25"/>
<stop offset="1" stop-color="white" stop-opacity="0"/>
</linearGradient>
</defs>
</svg>
