<svg width="44" height="44" viewBox="0 0 44 44" fill="none" xmlns="http://www.w3.org/2000/svg">
<path d="M12.4881 11.196L22.1167 8.52489C25.6255 7.5515 28.1672 9.13944 29.1445 12.9155L31.8237 23.2676C32.801 27.0437 31.3667 29.7346 27.8579 30.708L18.2293 33.3791C14.7205 34.3525 12.1879 32.762 11.2106 28.986L8.53141 18.6338C7.55413 14.8578 8.97929 12.1694 12.4881 11.196Z" fill="url(#paint0_linear_52_119)"/>
<g filter="url(#filter0_f_52_119)">
<path d="M15.1955 15.0186L21.735 13.2045C24.1181 12.5434 25.8146 13.5071 26.4259 15.8691L28.1018 22.3446C28.7131 24.7066 27.7093 26.4194 25.3262 27.0805L18.7868 28.8946C16.4037 29.5557 14.7133 28.5903 14.102 26.2283L12.4261 19.7528C11.8148 17.3908 12.8125 15.6797 15.1955 15.0186Z" fill="#0062FF" fill-opacity="0.5"/>
</g>
<g filter="url(#filter1_b_52_119)">
<mask id="path-3-outside-1_52_119" maskUnits="userSpaceOnUse" x="13.3035" y="12.502" width="25" height="25" fill="black">
<rect fill="white" x="13.3035" y="12.502" width="25" height="25"/>
<path d="M30.5768 13.502H20.7379C16.8909 13.502 14.3035 16.2983 14.3035 20.4575V30.0564C14.3035 34.2038 16.8909 37.0001 20.7379 37.0001H30.5768C34.4238 37.0001 36.9998 34.2038 36.9998 30.0564V20.4575C36.9998 16.2983 34.4238 13.502 30.5768 13.502Z"/>
</mask>
<path d="M30.5768 13.502H20.7379C16.8909 13.502 14.3035 16.2983 14.3035 20.4575V30.0564C14.3035 34.2038 16.8909 37.0001 20.7379 37.0001H30.5768C34.4238 37.0001 36.9998 34.2038 36.9998 30.0564V20.4575C36.9998 16.2983 34.4238 13.502 30.5768 13.502Z" fill="#3EA0FE" fill-opacity="0.35"/>
<path d="M30.5768 13.8569C30.7727 13.8569 30.9316 13.698 30.9316 13.502C30.9316 13.3061 30.7727 13.1472 30.5768 13.1472V13.8569ZM30.5768 13.1472C30.3808 13.1472 30.2219 13.3061 30.2219 13.502C30.2219 13.698 30.3808 13.8569 30.5768 13.8569V13.1472ZM30.5768 13.1472H20.7379V13.8569H30.5768V13.1472ZM20.7379 13.1472C18.7242 13.1472 17.0182 13.8814 15.8176 15.1791C14.6192 16.4744 13.9486 18.3044 13.9486 20.4575H14.6583C14.6583 18.4514 15.2814 16.8036 16.3385 15.661C17.3934 14.5209 18.9045 13.8569 20.7379 13.8569V13.1472ZM13.9486 20.4575V30.0564H14.6583V20.4575H13.9486ZM13.9486 30.0564C13.9486 32.2038 14.6193 34.0309 15.8177 35.3246C17.0183 36.6208 18.7242 37.3549 20.7379 37.3549V36.6452C18.9045 36.6452 17.3932 35.9812 16.3384 34.8424C15.2813 33.7011 14.6583 32.0564 14.6583 30.0564H13.9486ZM20.7379 37.3549H30.5768V36.6452H20.7379V37.3549ZM30.5768 37.3549C32.5905 37.3549 34.2938 36.6207 35.4916 35.3243C36.687 34.0304 37.3547 32.2034 37.3547 30.0564H36.645C36.645 32.0568 36.0246 33.7016 34.9703 34.8427C33.9183 35.9813 32.4101 36.6452 30.5768 36.6452V37.3549ZM37.3547 30.0564V20.4575H36.645V30.0564H37.3547ZM37.3547 20.4575C37.3547 18.3048 36.6872 16.4749 35.4917 15.1794C34.2939 13.8814 32.5905 13.1472 30.5768 13.1472V13.8569C32.4101 13.8569 33.9182 14.5208 34.9702 15.6607C36.0245 16.8032 36.645 18.4509 36.645 20.4575H37.3547Z" fill="url(#paint1_linear_52_119)" mask="url(#path-3-outside-1_52_119)"/>
</g>
<g filter="url(#filter2_bd_52_119)">
<mask id="path-5-inside-2_52_119" fill="white">
<path fill-rule="evenodd" clip-rule="evenodd" d="M18.8619 21.1696C18.8619 22.7955 20.1383 24.1188 21.7092 24.1188C23.279 24.1188 24.5565 22.7955 24.5565 21.1696C24.5565 19.5437 23.279 18.2204 21.7092 18.2204C20.1383 18.2204 18.8619 19.5437 18.8619 21.1696ZM34.3854 31.9932C34.7933 30.9901 34.9915 29.7726 34.6099 28.7597C34.4827 28.4237 34.2925 28.1108 34.0256 27.8357C33.3255 27.1162 32.6712 26.4442 31.8932 25.9475C30.6718 25.1586 29.7288 26.2664 29.4744 26.6207C29.2715 26.9038 29.0921 27.2111 28.9103 27.5225C28.8724 27.5874 28.8344 27.6525 28.7961 27.7176L28.7871 27.7331C28.2461 28.6609 27.6249 29.7262 26.5538 30.3473C24.9886 31.2445 23.8004 30.4179 22.9456 29.8165C22.6248 29.5925 22.3132 29.3806 22.0026 29.2394C21.2372 28.8973 20.5486 29.2869 19.5266 30.6309C18.9903 31.3334 18.4587 32.0298 17.9201 32.7237C17.5982 33.1389 17.6749 33.7792 18.1092 34.0568C18.8024 34.4987 19.648 34.7361 20.6036 34.7361H30.2066C30.7486 34.7361 31.2917 34.6594 31.8096 34.4841C32.976 34.0897 33.9018 33.1863 34.3854 31.9932Z"/>
</mask>
<path fill-rule="evenodd" clip-rule="evenodd" d="M18.8619 21.1696C18.8619 22.7955 20.1383 24.1188 21.7092 24.1188C23.279 24.1188 24.5565 22.7955 24.5565 21.1696C24.5565 19.5437 23.279 18.2204 21.7092 18.2204C20.1383 18.2204 18.8619 19.5437 18.8619 21.1696ZM34.3854 31.9932C34.7933 30.9901 34.9915 29.7726 34.6099 28.7597C34.4827 28.4237 34.2925 28.1108 34.0256 27.8357C33.3255 27.1162 32.6712 26.4442 31.8932 25.9475C30.6718 25.1586 29.7288 26.2664 29.4744 26.6207C29.2715 26.9038 29.0921 27.2111 28.9103 27.5225C28.8724 27.5874 28.8344 27.6525 28.7961 27.7176L28.7871 27.7331C28.2461 28.6609 27.6249 29.7262 26.5538 30.3473C24.9886 31.2445 23.8004 30.4179 22.9456 29.8165C22.6248 29.5925 22.3132 29.3806 22.0026 29.2394C21.2372 28.8973 20.5486 29.2869 19.5266 30.6309C18.9903 31.3334 18.4587 32.0298 17.9201 32.7237C17.5982 33.1389 17.6749 33.7792 18.1092 34.0568C18.8024 34.4987 19.648 34.7361 20.6036 34.7361H30.2066C30.7486 34.7361 31.2917 34.6594 31.8096 34.4841C32.976 34.0897 33.9018 33.1863 34.3854 31.9932Z" fill="url(#paint2_linear_52_119)"/>
<path d="M34.6099 28.7597L34.6763 28.7347L34.6763 28.7346L34.6099 28.7597ZM34.3854 31.9932L34.3196 31.9665L34.3196 31.9666L34.3854 31.9932ZM34.0256 27.8357L34.0765 27.7863L34.0764 27.7862L34.0256 27.8357ZM31.8932 25.9475L31.8547 26.0071L31.855 26.0073L31.8932 25.9475ZM29.4744 26.6207L29.4168 26.5793L29.4168 26.5794L29.4744 26.6207ZM28.9103 27.5225L28.9716 27.5583V27.5583L28.9103 27.5225ZM28.7961 27.7176L28.735 27.6816L28.7348 27.6819L28.7961 27.7176ZM28.7871 27.7331L28.7258 27.6974L28.7258 27.6974L28.7871 27.7331ZM26.5538 30.3473L26.5891 30.4088L26.5894 30.4087L26.5538 30.3473ZM22.9456 29.8165L22.9865 29.7584L22.9863 29.7583L22.9456 29.8165ZM22.0026 29.2394L22.032 29.1748L22.0316 29.1746L22.0026 29.2394ZM19.5266 30.6309L19.583 30.674L19.583 30.6739L19.5266 30.6309ZM17.9201 32.7237L17.8641 32.6802L17.8641 32.6802L17.9201 32.7237ZM18.1092 34.0568L18.071 34.1166L18.071 34.1166L18.1092 34.0568ZM31.8096 34.4841L31.7868 34.4169L31.7868 34.4169L31.8096 34.4841ZM21.7092 24.0479C20.1799 24.0479 18.9329 22.7587 18.9329 21.1696H18.7909C18.7909 22.8323 20.0968 24.1898 21.7092 24.1898V24.0479ZM24.4856 21.1696C24.4856 22.7587 23.2374 24.0479 21.7092 24.0479V24.1898C23.3205 24.1898 24.6275 22.8324 24.6275 21.1696H24.4856ZM21.7092 18.2913C23.2374 18.2913 24.4856 19.5805 24.4856 21.1696H24.6275C24.6275 19.5068 23.3205 18.1494 21.7092 18.1494V18.2913ZM18.9329 21.1696C18.9329 19.5805 20.1799 18.2913 21.7092 18.2913V18.1494C20.0968 18.1494 18.7909 19.5069 18.7909 21.1696H18.9329ZM34.5435 28.7847C34.9162 29.774 34.7242 30.9714 34.3196 31.9665L34.4511 32.02C34.8623 31.0087 35.0668 29.7713 34.6763 28.7347L34.5435 28.7847ZM33.9746 27.8851C34.2344 28.1528 34.4196 28.4573 34.5436 28.7849L34.6763 28.7346C34.5459 28.3901 34.3507 28.0688 34.0765 27.7863L33.9746 27.8851ZM31.855 26.0073C32.6249 26.4988 33.2735 27.1645 33.9747 27.8852L34.0764 27.7862C33.3775 27.0679 32.7176 26.3896 31.9314 25.8876L31.855 26.0073ZM29.5321 26.6621C29.6568 26.4884 29.9484 26.1332 30.3544 25.9181C30.7557 25.7055 31.2689 25.6287 31.8547 26.0071L31.9317 25.8878C31.2961 25.4773 30.7272 25.56 30.288 25.7927C29.8535 26.0229 29.5464 26.3987 29.4168 26.5793L29.5321 26.6621ZM28.9716 27.5583C29.1537 27.2463 29.3315 26.942 29.5321 26.662L29.4168 26.5794C29.2116 26.8656 29.0305 27.1759 28.849 27.4868L28.9716 27.5583ZM28.8573 27.7536C28.8957 27.6884 28.9337 27.6232 28.9716 27.5583L28.849 27.4868C28.8111 27.5517 28.7732 27.6167 28.735 27.6816L28.8573 27.7536ZM28.8484 27.7689L28.8574 27.7534L28.7348 27.6819L28.7258 27.6974L28.8484 27.7689ZM26.5894 30.4087C27.6792 29.7767 28.3089 28.694 28.8484 27.7689L28.7258 27.6974C28.1832 28.6277 27.5705 29.6757 26.5182 30.2859L26.5894 30.4087ZM22.9048 29.8745C23.331 30.1744 23.8511 30.5387 24.464 30.7122C25.081 30.8868 25.7891 30.8674 26.5891 30.4088L26.5185 30.2857C25.7532 30.7244 25.0847 30.7403 24.5026 30.5756C23.9164 30.4097 23.415 30.06 22.9865 29.7584L22.9048 29.8745ZM21.9733 29.304C22.277 29.4421 22.5836 29.6502 22.905 29.8747L22.9863 29.7583C22.666 29.5347 22.3493 29.3191 22.032 29.1748L21.9733 29.304ZM19.583 30.6739C20.0929 30.0034 20.5133 29.5799 20.8957 29.3647C21.272 29.1529 21.6119 29.1425 21.9737 29.3042L22.0316 29.1746C21.628 28.9942 21.2409 29.0076 20.826 29.241C20.4172 29.4711 19.9823 29.9144 19.4701 30.588L19.583 30.6739ZM17.9762 32.7672C18.5149 32.073 19.0468 31.3764 19.583 30.674L19.4701 30.5879C18.9339 31.2904 18.4024 31.9865 17.8641 32.6802L17.9762 32.7672ZM18.1474 33.997C17.7527 33.7447 17.6766 33.1536 17.9762 32.7672L17.8641 32.6802C17.5198 33.1241 17.5972 33.8138 18.071 34.1166L18.1474 33.997ZM20.6036 34.6652C19.6599 34.6652 18.8279 34.4308 18.1473 33.997L18.071 34.1166C18.7769 34.5667 19.6361 34.8071 20.6036 34.8071V34.6652ZM30.2066 34.6652H20.6036V34.8071H30.2066V34.6652ZM31.7868 34.4169C31.2772 34.5894 30.7419 34.6652 30.2066 34.6652V34.8071C30.7552 34.8071 31.3061 34.7295 31.8323 34.5513L31.7868 34.4169ZM34.3196 31.9666C33.8433 33.1419 32.9324 34.0295 31.7868 34.4169L31.8323 34.5513C33.0197 34.1498 33.9604 33.2308 34.4511 32.0199L34.3196 31.9666Z" fill="url(#paint3_linear_52_119)" fill-opacity="0.5" mask="url(#path-5-inside-2_52_119)"/>
</g>
<defs>
<filter id="filter0_f_52_119" x="5.50846" y="6.25889" width="29.5104" height="29.5812" filterUnits="userSpaceOnUse" color-interpolation-filters="sRGB">
<feFlood flood-opacity="0" result="BackgroundImageFix"/>
<feBlend mode="normal" in="SourceGraphic" in2="BackgroundImageFix" result="shape"/>
<feGaussianBlur stdDeviation="3.37095" result="effect1_foregroundBlur_52_119"/>
</filter>
<filter id="filter1_b_52_119" x="5.43251" y="4.63112" width="40.4383" height="41.2399" filterUnits="userSpaceOnUse" color-interpolation-filters="sRGB">
<feFlood flood-opacity="0" result="BackgroundImageFix"/>
<feGaussianBlur in="BackgroundImageFix" stdDeviation="4.25805"/>
<feComposite in2="SourceAlpha" operator="in" result="effect1_backgroundBlur_52_119"/>
<feBlend mode="normal" in="SourceGraphic" in2="effect1_backgroundBlur_52_119" result="shape"/>
</filter>
<filter id="filter2_bd_52_119" x="12.3998" y="12.8978" width="27.7369" height="27.1609" filterUnits="userSpaceOnUse" color-interpolation-filters="sRGB">
<feFlood flood-opacity="0" result="BackgroundImageFix"/>
<feGaussianBlur in="BackgroundImageFix" stdDeviation="2.66128"/>
<feComposite in2="SourceAlpha" operator="in" result="effect1_backgroundBlur_52_119"/>
<feColorMatrix in="SourceAlpha" type="matrix" values="0 0 0 0 0 0 0 0 0 0 0 0 0 0 0 0 0 0 127 0" result="hardAlpha"/>
<feOffset dx="1.77419" dy="1.77419"/>
<feGaussianBlur stdDeviation="1.77419"/>
<feColorMatrix type="matrix" values="0 0 0 0 0.15375 0 0 0 0 0.522433 0 0 0 0 0.9 0 0 0 0.5 0"/>
<feBlend mode="normal" in2="effect1_backgroundBlur_52_119" result="effect2_dropShadow_52_119"/>
<feBlend mode="normal" in="SourceGraphic" in2="effect2_dropShadow_52_119" result="shape"/>
</filter>
<linearGradient id="paint0_linear_52_119" x1="8.4748" y1="12.3093" x2="34.7453" y2="20.8442" gradientUnits="userSpaceOnUse">
<stop stop-color="#71C3F9"/>
<stop offset="1" stop-color="#3A76FF"/>
</linearGradient>
<linearGradient id="paint1_linear_52_119" x1="17.9164" y1="16.2396" x2="33.0069" y2="34.292" gradientUnits="userSpaceOnUse">
<stop stop-color="white" stop-opacity="0.25"/>
<stop offset="1" stop-color="white" stop-opacity="0.06"/>
</linearGradient>
<linearGradient id="paint2_linear_52_119" x1="33.6023" y1="21.2028" x2="14.5652" y2="21.8451" gradientUnits="userSpaceOnUse">
<stop stop-color="white"/>
<stop offset="1" stop-color="white" stop-opacity="0.2"/>
</linearGradient>
<linearGradient id="paint3_linear_52_119" x1="19.5635" y1="23.7606" x2="34.0767" y2="23.8435" gradientUnits="userSpaceOnUse">
<stop stop-color="white"/>
<stop offset="1" stop-color="white" stop-opacity="0"/>
</linearGradient>
</defs>
</svg>
