<svg width="44" height="44" viewBox="0 0 44 44" fill="none" xmlns="http://www.w3.org/2000/svg">
<path d="M18.0312 16.1299H27.8096V16.0137C27.7847 14.2871 26.855 13.3906 25.0952 13.3906H13.8394C12.0464 13.3906 11.1167 14.312 11.1167 16.0884V23.9741C11.1167 25.7422 12.0298 26.6553 13.7979 26.6719H14.0967V20.0312C14.0967 17.5825 15.5742 16.1299 18.0312 16.1299ZM18.0312 30.6147H29.3618C31.1548 30.6147 32.0845 29.6934 32.0845 27.917V20.0312C32.0845 18.2632 31.1548 17.3418 29.3618 17.3418H18.0312C16.2383 17.3418 15.3086 18.2632 15.3086 20.0312V27.917C15.3086 29.6934 16.2383 30.6147 18.0312 30.6147ZM21.4263 23.916C20.4634 23.916 19.6831 23.1191 19.6831 22.1562C19.6831 21.21 20.4634 20.4131 21.4263 20.4131C22.3809 20.4131 23.1694 21.21 23.1694 22.1562C23.1694 23.1191 22.3809 23.916 21.4263 23.916ZM18.1309 28.9961C17.3589 28.9961 16.9355 28.5894 16.9355 27.7842V27.0454L18.7534 25.4434C19.0605 25.1777 19.3677 25.0449 19.6914 25.0449C20.0317 25.0449 20.3638 25.1694 20.6709 25.4517L21.9741 26.6304L25.2446 23.7334C25.5767 23.4346 25.9336 23.3018 26.332 23.3018C26.7305 23.3018 27.1123 23.4429 27.4194 23.7417L30.4575 26.5972V27.7842C30.4575 28.5894 30.0259 28.9961 29.2622 28.9961H18.1309Z" fill="#A0A9FC"/>
</svg>
